<svg width="209" height="111" viewBox="0 0 209 111" fill="none" xmlns="http://www.w3.org/2000/svg">
<g id="&#208;&#157;&#208;&#176; &#209;&#129;&#209;&#131;&#208;&#188;&#208;&#186;&#208;&#184;" clip-path="url(#clip0_8_3)">
<g id="Group 1597880569">
<path id="&#208;&#154;&#208;&#190;&#208;&#189;&#209;&#130;&#209;&#131;&#209;&#128; 665" d="M103.692 18.8571C104.517 18.8787 105.338 18.7353 106.106 18.4353C106.875 18.1352 107.576 17.6845 108.169 17.1096C108.762 16.5346 109.234 15.847 109.559 15.0869C109.883 14.3268 110.053 13.5095 110.058 12.6829C110.056 11.8553 109.888 11.0365 109.565 10.2749C109.242 9.51332 108.77 8.82438 108.176 8.24883C107.583 7.67327 106.88 7.22278 106.11 6.924C105.34 6.62522 104.518 6.48421 103.692 6.5093C102.866 6.48421 102.044 6.62522 101.274 6.924C100.504 7.22278 99.8012 7.67327 99.2077 8.24883C98.6142 8.82438 98.1419 9.51332 97.8188 10.2749C97.4956 11.0365 97.3281 11.8553 97.3262 12.6829C97.3314 13.5095 97.5012 14.3268 97.8255 15.0869C98.1498 15.847 98.6222 16.5346 99.215 17.1096C99.8078 17.6845 100.509 18.1352 101.278 18.4353C102.047 18.7353 102.867 18.8787 103.692 18.8571ZM103.692 68.987C107.367 68.987 109.649 66.6563 109.649 62.7724V29.6516C109.649 25.7671 107.364 23.3961 103.692 23.3961C99.9789 23.3961 97.7346 25.7677 97.7346 29.6516V62.7694C97.7346 66.6551 99.9789 68.9846 103.692 68.9846V68.987ZM140.524 68.987C144.033 68.987 146.481 66.8606 146.481 62.7724V53.8975L150.275 50.3813L161.498 65.264C163.375 68.0853 164.803 68.9846 167.333 68.9846C170.68 68.9846 173.006 66.7768 173.006 63.5873C173.006 62.0335 172.638 60.9703 171.333 59.2122L159.131 43.6345L170.271 33.0859C171.985 31.4911 172.516 30.3875 172.516 28.5884C172.525 27.8936 172.393 27.2041 172.128 26.5619C171.863 25.9197 171.47 25.3381 170.974 24.8525C170.478 24.3669 169.889 23.9874 169.242 23.737C168.595 23.4867 167.904 23.3707 167.211 23.3961C165.415 23.3961 164.069 24.091 162.477 25.7677L146.645 41.6721H146.482V14.482C146.482 10.3932 144.034 8.22643 140.524 8.22643C137.056 8.22643 134.567 10.3932 134.567 14.482V62.7706C134.566 66.8582 137.055 68.9846 140.524 68.9846V68.987ZM202.125 18.8571C202.95 18.8787 203.77 18.7353 204.539 18.4353C205.308 18.1352 206.009 17.6845 206.602 17.1096C207.195 16.5346 207.667 15.847 207.991 15.0869C208.316 14.3268 208.486 13.5095 208.491 12.6829C208.489 11.8553 208.322 11.0364 207.998 10.2747C207.675 9.51307 207.203 8.82406 206.609 8.24844C206.016 7.67282 205.313 7.22228 204.543 6.92346C203.773 6.62464 202.951 6.48361 202.125 6.50871C201.299 6.48361 200.477 6.62464 199.707 6.92346C198.937 7.22228 198.234 7.67282 197.64 8.24844C197.047 8.82406 196.575 9.51307 196.251 10.2747C195.928 11.0364 195.761 11.8553 195.759 12.6829C195.764 13.5095 195.934 14.3268 196.258 15.0869C196.583 15.847 197.055 16.5346 197.648 17.1096C198.241 17.6845 198.942 18.1352 199.711 18.4353C200.479 18.7353 201.3 18.8787 202.125 18.8571ZM202.125 68.987C205.8 68.987 208.082 66.6563 208.082 62.7724V29.6516C208.082 25.7671 205.797 23.3961 202.125 23.3961C198.412 23.3961 196.167 25.7677 196.167 29.6516V62.7694C196.167 66.6551 198.411 68.9846 202.125 68.9846V68.987Z" fill="white"/>
<g id="design">
<path d="M106.056 103.308C104.381 103.308 102.913 102.908 101.651 102.107C100.414 101.307 99.4485 100.184 98.753 98.7389C98.0833 97.2677 97.7484 95.5383 97.7484 93.5508C97.7484 91.5375 98.0833 89.8081 98.753 88.3627C99.4485 86.8914 100.414 85.7686 101.651 84.9943C102.913 84.1941 104.381 83.794 106.056 83.794C107.756 83.794 109.211 84.2199 110.422 85.0717C111.633 85.9235 112.444 87.0721 112.856 88.5175H112.431V76.9797C112.431 76.4635 112.56 76.0763 112.818 75.8182C113.101 75.5343 113.5 75.3923 114.015 75.3923C114.505 75.3923 114.878 75.5343 115.136 75.8182C115.419 76.0763 115.561 76.4635 115.561 76.9797V101.604C115.561 102.12 115.432 102.52 115.175 102.804C114.917 103.088 114.531 103.23 114.015 103.23C113.526 103.23 113.14 103.088 112.856 102.804C112.599 102.52 112.47 102.12 112.47 101.604V97.9259L112.895 98.4679C112.483 99.9392 111.659 101.114 110.422 101.991C109.211 102.869 107.756 103.308 106.056 103.308ZM106.713 100.791C107.872 100.791 108.889 100.507 109.765 99.9392C110.641 99.3713 111.311 98.5453 111.774 97.4613C112.264 96.3772 112.509 95.0737 112.509 93.5508C112.509 91.2019 111.981 89.408 110.924 88.1691C109.894 86.9301 108.49 86.3106 106.713 86.3106C105.528 86.3106 104.497 86.5946 103.622 87.1624C102.771 87.7045 102.102 88.5175 101.612 89.6016C101.149 90.6599 100.917 91.9763 100.917 93.5508C100.917 95.8738 101.445 97.6678 102.501 98.9325C103.557 100.171 104.961 100.791 106.713 100.791Z" fill="white"/>
<path d="M129.897 103.308C127.913 103.308 126.2 102.92 124.758 102.146C123.341 101.346 122.233 100.223 121.435 98.7777C120.662 97.3322 120.275 95.6028 120.275 93.5895C120.275 91.6278 120.662 89.9243 121.435 88.4788C122.207 87.0076 123.263 85.8589 124.603 85.033C125.968 84.207 127.54 83.794 129.317 83.794C130.579 83.794 131.713 84.0134 132.717 84.4522C133.722 84.8652 134.572 85.4718 135.267 86.2719C135.989 87.0721 136.53 88.04 136.89 89.1757C137.277 90.3114 137.47 91.5891 137.47 93.0088C137.47 93.4217 137.354 93.7315 137.122 93.938C136.89 94.1187 136.555 94.209 136.117 94.209H122.671V92.157H135.383L134.765 92.6603C134.765 91.2665 134.559 90.092 134.147 89.137C133.735 88.1562 133.129 87.4076 132.331 86.8914C131.558 86.3752 130.579 86.1171 129.394 86.1171C128.08 86.1171 126.96 86.4268 126.033 87.0463C125.131 87.6399 124.448 88.4788 123.985 89.5629C123.521 90.6212 123.289 91.8601 123.289 93.2798V93.5121C123.289 95.8868 123.856 97.6936 124.989 98.9325C126.149 100.171 127.784 100.791 129.897 100.791C130.772 100.791 131.635 100.675 132.485 100.443C133.361 100.21 134.211 99.823 135.036 99.281C135.396 99.0487 135.718 98.9454 136.002 98.9712C136.311 98.9712 136.555 99.0616 136.736 99.2423C136.916 99.3971 137.032 99.6036 137.083 99.8617C137.161 100.094 137.135 100.352 137.006 100.636C136.903 100.92 136.684 101.165 136.349 101.372C135.499 101.991 134.495 102.469 133.335 102.804C132.176 103.14 131.03 103.308 129.897 103.308Z" fill="white"/>
<path d="M148.336 103.308C147.177 103.308 146.005 103.166 144.82 102.882C143.661 102.598 142.579 102.107 141.574 101.41C141.317 101.23 141.136 101.023 141.033 100.791C140.93 100.533 140.892 100.288 140.917 100.055C140.969 99.7972 141.072 99.5778 141.227 99.3971C141.407 99.2165 141.613 99.1132 141.845 99.0874C142.102 99.0358 142.386 99.0874 142.695 99.2423C143.699 99.8617 144.665 100.301 145.593 100.559C146.546 100.791 147.486 100.907 148.413 100.907C149.882 100.907 150.989 100.636 151.736 100.094C152.483 99.552 152.857 98.8164 152.857 97.8872C152.857 97.1644 152.612 96.5966 152.123 96.1836C151.633 95.7448 150.861 95.4092 149.804 95.1769L146.288 94.4026C144.665 94.067 143.455 93.4863 142.656 92.6603C141.883 91.8343 141.497 90.7631 141.497 89.4468C141.497 88.2852 141.793 87.2915 142.386 86.4655C143.004 85.6137 143.867 84.9555 144.975 84.4909C146.082 84.0263 147.37 83.794 148.839 83.794C149.972 83.794 151.041 83.9489 152.046 84.2586C153.076 84.5425 154.003 85.0072 154.828 85.6524C155.085 85.8331 155.253 86.0525 155.33 86.3106C155.433 86.5429 155.446 86.7882 155.369 87.0463C155.317 87.2786 155.201 87.4851 155.021 87.6658C154.84 87.8206 154.622 87.911 154.364 87.9368C154.106 87.9626 153.836 87.8852 153.552 87.7045C152.78 87.1882 151.994 86.814 151.195 86.5817C150.397 86.3236 149.611 86.1945 148.839 86.1945C147.396 86.1945 146.301 86.4784 145.554 87.0463C144.807 87.6141 144.434 88.3627 144.434 89.2919C144.434 90.0146 144.665 90.6083 145.129 91.0729C145.593 91.5375 146.314 91.873 147.293 92.0795L150.809 92.8152C152.483 93.1765 153.733 93.7573 154.557 94.5575C155.407 95.3318 155.832 96.3901 155.832 97.7323C155.832 99.4359 155.15 100.791 153.784 101.798C152.419 102.804 150.603 103.308 148.336 103.308Z" fill="white"/>
<path d="M162.148 103.153C161.632 103.153 161.246 103.011 160.988 102.727C160.731 102.417 160.602 101.991 160.602 101.449V85.6137C160.602 85.0717 160.731 84.6587 160.988 84.3748C161.246 84.0908 161.632 83.9489 162.148 83.9489C162.637 83.9489 163.023 84.0908 163.307 84.3748C163.59 84.6587 163.732 85.0717 163.732 85.6137V101.449C163.732 101.991 163.59 102.417 163.307 102.727C163.049 103.011 162.663 103.153 162.148 103.153ZM162.148 79.6125C161.504 79.6125 161.001 79.4448 160.641 79.1092C160.28 78.7478 160.1 78.2703 160.1 77.6767C160.1 77.0572 160.28 76.5926 160.641 76.2828C161.001 75.9473 161.504 75.7795 162.148 75.7795C162.817 75.7795 163.32 75.9473 163.655 76.2828C164.015 76.5926 164.195 77.0572 164.195 77.6767C164.195 78.2703 164.015 78.7478 163.655 79.1092C163.32 79.4448 162.817 79.6125 162.148 79.6125Z" fill="white"/>
<path d="M177.89 110.277C176.525 110.277 175.185 110.109 173.872 109.773C172.584 109.464 171.412 108.96 170.355 108.263C170.046 108.083 169.84 107.863 169.737 107.605C169.66 107.347 169.647 107.089 169.699 106.831C169.75 106.599 169.866 106.379 170.046 106.173C170.227 105.992 170.433 105.876 170.665 105.824C170.922 105.773 171.18 105.811 171.437 105.94C172.571 106.637 173.653 107.115 174.683 107.373C175.713 107.631 176.731 107.76 177.736 107.76C179.564 107.76 180.943 107.27 181.87 106.289C182.823 105.308 183.3 103.888 183.3 102.03V97.6549H183.686C183.3 99.1519 182.475 100.339 181.213 101.217C179.977 102.094 178.521 102.533 176.847 102.533C175.121 102.533 173.627 102.146 172.365 101.372C171.102 100.572 170.124 99.4617 169.428 98.042C168.758 96.6224 168.423 94.9833 168.423 93.1249C168.423 91.7311 168.617 90.4663 169.003 89.3306C169.389 88.1691 169.943 87.1882 170.665 86.3881C171.412 85.5621 172.3 84.9297 173.331 84.4909C174.387 84.0263 175.559 83.794 176.847 83.794C178.547 83.794 180.015 84.2328 181.252 85.1104C182.488 85.9622 183.287 87.1237 183.647 88.595L183.261 89.0596V85.4589C183.261 84.9426 183.39 84.5555 183.647 84.2973C183.931 84.0134 184.317 83.8714 184.807 83.8714C185.322 83.8714 185.708 84.0134 185.966 84.2973C186.223 84.5555 186.352 84.9426 186.352 85.4589V101.604C186.352 104.469 185.631 106.624 184.188 108.07C182.771 109.541 180.672 110.277 177.89 110.277ZM177.426 99.9779C178.637 99.9779 179.68 99.7069 180.556 99.1648C181.432 98.597 182.102 97.7968 182.565 96.7643C183.055 95.7319 183.3 94.5187 183.3 93.1249C183.3 91.0342 182.771 89.3822 181.715 88.1691C180.659 86.9301 179.23 86.3106 177.426 86.3106C176.241 86.3106 175.211 86.5946 174.335 87.1624C173.459 87.7045 172.777 88.4917 172.287 89.5242C171.824 90.5308 171.592 91.7311 171.592 93.1249C171.592 95.2157 172.12 96.8805 173.176 98.1195C174.232 99.3584 175.649 99.9779 177.426 99.9779Z" fill="white"/>
<path d="M193.768 103.23C193.253 103.23 192.867 103.088 192.609 102.804C192.352 102.52 192.223 102.12 192.223 101.604V85.4589C192.223 84.9426 192.352 84.5555 192.609 84.2973C192.867 84.0134 193.24 83.8714 193.73 83.8714C194.219 83.8714 194.593 84.0134 194.85 84.2973C195.134 84.5555 195.275 84.9426 195.275 85.4589V88.7886L194.85 88.324C195.391 86.8269 196.267 85.7041 197.478 84.9555C198.714 84.1812 200.131 83.794 201.728 83.794C203.222 83.794 204.459 84.065 205.437 84.6071C206.442 85.1491 207.189 85.9751 207.679 87.085C208.168 88.1691 208.413 89.55 208.413 91.2278V101.604C208.413 102.12 208.271 102.52 207.988 102.804C207.73 103.088 207.357 103.23 206.867 103.23C206.352 103.23 205.953 103.088 205.669 102.804C205.412 102.52 205.283 102.12 205.283 101.604V91.4213C205.283 89.6662 204.935 88.3885 204.24 87.5883C203.57 86.7623 202.488 86.3494 200.994 86.3494C199.268 86.3494 197.89 86.8914 196.86 87.9755C195.855 89.0338 195.353 90.4534 195.353 92.2344V101.604C195.353 102.688 194.825 103.23 193.768 103.23Z" fill="white"/>
</g>
</g>
<g id="Group">
<g id="Group_2">
<g id="Group_3">
<g id="Group_4">
<g id="Group_5">
<path id="Vector" opacity="0.35" d="M66.6222 74.7804C60.5212 77.7568 54.9383 80.0662 43.4474 80.0662C31.9566 80.0662 26.2141 77.7803 19.9606 74.6421C20.5469 74.2199 21.263 74.017 21.9839 74.0688C22.7506 73.8742 23.7438 73.6755 24.785 73.4615C36.6807 77.6618 50.8559 77.6337 62.697 73.2195C64.3015 73.4885 65.778 73.8994 66.6222 74.7804Z" fill="#C5EFFF"/>
<g id="Group_6">
<path id="Vector_2" d="M27.9247 28.4792C27.6897 29.0013 27.4229 29.5085 27.1257 29.9979C23.1038 32.2839 12.2471 36.4601 7.53937 34.0423C0.286885 30.3092 -0.296223 16.7417 4.10818 10.902C8.51258 5.0622 18.1051 3.751 23.857 6.70516C31.3529 10.5579 31.194 21.1993 27.927 28.4792H27.9247Z" fill="black"/>
<g id="Group_7">
<path id="Vector_3" d="M60.2191 30.2201C60.4523 30.7687 60.7204 31.3018 61.0216 31.8162C65.165 34.2727 76.3913 38.827 81.3366 36.3969C88.9627 32.6526 89.8274 18.5365 85.3509 12.3715C80.8743 6.20641 70.9169 4.66133 64.8693 7.6237C56.9915 11.4922 56.954 22.5756 60.2191 30.216V30.2201Z" fill="black"/>
</g>
</g>
<g id="Group_8">
<path id="Vector_4" d="M41.8729 4.87866C41.5508 4.9279 41.22 4.98827 41.0763 5.01699C41.0288 4.99237 40.9795 4.96951 40.9325 4.94724C41.244 4.92028 41.5585 4.898 41.8729 4.87866Z" fill="white"/>
<path id="Vector_5" opacity="0.4" d="M4.67835 50.8177C4.68422 50.8558 4.68774 50.8951 4.6936 50.9349C4.6299 50.9828 4.5635 51.0271 4.49473 51.0674C4.46071 51.0885 4.42082 51.1108 4.37741 51.1336C4.3868 50.3884 4.41828 49.6313 4.47186 48.8623C4.49063 49.1308 4.51351 49.3957 4.5399 49.6606C4.57804 50.0504 4.62321 50.4379 4.676 50.8183L4.67835 50.8177Z" fill="white"/>
<path id="Vector_6" opacity="0.4" d="M82.2012 51.0444C82.1314 51.001 82.0763 50.9629 82.0364 50.933C82.0422 50.8955 82.0475 50.8575 82.0516 50.8158C82.1044 50.4337 82.1479 50.048 82.1878 49.6582C82.2142 49.3933 82.237 49.1307 82.2558 48.8599C82.3086 49.6297 82.3401 50.3868 82.3502 51.1312C82.2916 51.0989 82.2441 51.0691 82.1989 51.0421L82.2012 51.0444Z" fill="white"/>
<path id="Vector_7" d="M85.3373 51.7989C85.3373 51.7989 85.3203 51.82 85.3033 51.8388C84.4282 52.7969 83.2941 53.4813 82.0381 53.8094C82.6279 54.3213 83.35 54.6569 84.1218 54.7777C82.7503 57.4822 81.1241 60.0499 79.2652 62.4462C78.5925 63.3048 77.874 64.1266 77.1128 64.908C76.9008 65.1257 76.6858 65.3375 76.4675 65.5434C75.9697 66.0143 75.4662 66.4676 74.957 66.9033C73.2633 68.357 71.4589 69.6767 69.56 70.8503C69.4708 70.909 69.3799 70.9617 69.2913 71.0151C66.1914 72.8921 62.8817 74.399 59.4301 75.5049C54.2371 77.1657 48.8207 78.0247 43.3682 78.0523C37.9151 78.0248 32.4982 77.1658 27.3046 75.5049C23.8534 74.3981 20.5437 72.8912 17.4434 71.0151C17.3771 70.9734 17.3073 70.9318 17.241 70.8902C15.3178 69.7075 13.4913 68.3748 11.7783 66.9044C11.2699 66.4676 10.7664 66.0137 10.2677 65.5428C10.039 65.3254 9.80959 65.102 9.58843 64.8734C9.1948 64.4708 8.81056 64.0529 8.44157 63.6232C8.15764 63.2961 7.88134 62.9632 7.61443 62.6268C5.71332 60.201 4.0513 57.5974 2.65155 54.8521C2.62691 54.8012 2.61342 54.7748 2.61342 54.7748C2.61342 54.7748 2.66094 54.7689 2.746 54.7543C3.44115 54.6187 4.09119 54.3112 4.6367 53.8598C4.65723 53.8428 4.67835 53.8258 4.69888 53.8071C3.44308 53.4785 2.30915 52.7942 1.43371 51.8364C1.41651 51.8177 1.40516 51.8044 1.39969 51.7966H1.44897C2.4424 51.8234 3.42735 51.6073 4.31816 51.1671C6.57081 50.9021 8.75659 50.7058 9.44353 49.1156C16.479 32.7926 35.6371 33.1953 40.3864 45.9873C41.8672 49.9347 41.9414 54.2714 40.5964 58.267C41.4537 58.228 42.3117 58.2047 43.1705 58.1973H43.5735C44.4859 58.2031 45.3982 58.2289 46.3102 58.2746C44.9618 54.2771 45.0353 49.937 46.5184 45.9873C51.2701 33.1953 70.4258 32.7926 77.4613 49.1156C78.1259 50.6589 80.2002 50.8916 82.3766 51.1448C83.2792 51.6022 84.2818 51.827 85.2933 51.7989H85.3426H85.3373Z" fill="white"/>
<path id="Vector_8" opacity="0.35" d="M84.1224 54.7776C84.1224 54.7776 80.9406 61.3189 76.4664 65.5438C74.2728 67.6143 71.8671 69.4481 69.289 71.0149C66.189 72.8919 62.8793 74.3988 59.4277 75.5048C48.9884 78.9013 37.7398 78.9013 27.3005 75.5048C23.8492 74.398 20.5396 72.8911 17.4393 71.0149C14.8612 69.4481 12.4554 67.6143 10.2619 65.5438C5.78706 61.3183 2.60519 54.7776 2.60519 54.7776C3.07725 54.7063 3.53289 54.5519 3.95092 54.3215C5.67085 57.3573 7.79285 60.1473 10.2595 62.616C12.4531 64.6865 14.8588 66.5203 17.4369 68.0871C20.5368 69.9641 23.8466 71.471 27.2981 72.5769C37.7375 75.9735 48.9861 75.9735 59.4254 72.5769C62.8766 71.4701 66.1862 69.9632 69.2866 68.0871C71.8647 66.5203 74.2704 64.6865 76.464 62.616C78.9308 60.1474 81.0528 57.3574 82.7726 54.3215C83.1902 54.5529 83.646 54.7074 84.1183 54.7776H84.1224Z" fill="#B3B3B3"/>
</g>
<path id="Vector_9" d="M85.7087 51.504C85.6615 51.4478 85.6024 51.4029 85.5356 51.3725C85.4688 51.342 85.3961 51.3269 85.3227 51.3281C84.4236 51.3539 83.5307 51.1707 82.7145 50.793C82.6654 50.7677 82.6252 50.7281 82.5992 50.6794C82.5732 50.6307 82.5627 50.5752 82.5691 50.5204C82.6031 50.2555 82.6336 49.9835 82.66 49.7074C82.7187 49.14 82.7585 48.5598 82.7867 47.9771C82.8705 46.1152 82.8251 44.2497 82.6506 42.3941C82.3626 39.4487 81.8261 36.5328 81.0468 33.6776C80.6965 32.3756 80.2796 31.0924 79.7978 29.8331C79.7697 29.7592 79.7427 29.6877 79.7145 29.6156C79.6635 29.4849 79.6107 29.353 79.5573 29.2205C79.5309 29.1543 79.5022 29.0863 79.4758 29.0183C79.4646 28.9902 79.4511 28.9597 79.44 28.9333C79.3491 28.71 79.2564 28.489 79.1596 28.2675C78.6903 27.1894 78.176 26.1353 77.6167 25.1052C77.5352 24.9558 77.4543 24.8063 77.371 24.6592C76.0007 22.2242 74.3758 19.9413 72.5237 17.8488C68.7435 13.5812 64.0991 10.1648 58.898 7.82572C56.8429 6.90704 54.7134 6.16427 52.5325 5.60541C52.0932 5.4917 51.6332 5.38209 51.1698 5.2801C50.7439 5.18573 50.3122 5.0984 49.8827 5.01927C49.5382 4.95479 49.1931 4.89481 48.8473 4.83932C48.3155 4.75413 47.7805 4.68106 47.2423 4.6201C44.339 3.18719 41.2296 2.21579 38.0264 1.74097C38.2288 1.8412 41.1942 2.81126 41.6758 4.41906C41.4371 4.4343 41.2006 4.45129 40.9625 4.47181C37.0819 2.13427 27.8396 2.81713 27.8396 2.81713C27.8396 2.81713 33.0923 2.90974 36.6255 5.0603C36.2677 5.12653 35.914 5.19863 35.5579 5.27776C35.0944 5.37974 34.6363 5.48935 34.1951 5.60307C32.0156 6.16185 29.8875 6.90442 27.8337 7.82279C22.6316 10.1613 17.9864 13.5778 14.2058 17.8458C12.3549 19.9397 10.7308 22.2233 9.36083 24.6586C9.27753 24.8063 9.19422 24.9558 9.11268 25.1046C8.55226 26.1335 8.03876 27.1876 7.5722 28.2669C7.46426 28.5148 7.35808 28.7663 7.25425 29.0177C7.14455 29.2879 7.03837 29.5587 6.93219 29.8307V29.8342L6.92632 29.8512C6.44518 31.1037 6.03064 32.3808 5.68443 33.677C4.90528 36.5324 4.36896 39.4485 4.08117 42.3941C3.90674 44.2497 3.86127 46.1152 3.94508 47.9771C3.97324 48.558 4.01489 49.14 4.07179 49.7057C4.09819 49.9835 4.13045 50.2561 4.16272 50.521C4.16908 50.5758 4.15856 50.6313 4.13257 50.68C4.10658 50.7287 4.06634 50.7683 4.01723 50.7935C3.19576 51.1736 2.29688 51.3568 1.39207 51.3287C1.30178 51.3278 1.21316 51.353 1.13684 51.4012C1.06051 51.4494 0.999722 51.5186 0.961762 51.6005C0.923802 51.6823 0.910282 51.7734 0.922823 51.8627C0.935365 51.9521 0.973436 52.0359 1.03247 52.1042C1.6563 52.7959 2.40422 53.3649 3.2376 53.7817C3.27091 53.7984 3.29867 53.8243 3.31755 53.8564C3.33643 53.8885 3.34562 53.9253 3.34401 53.9625C3.3424 53.9997 3.33005 54.0356 3.30847 54.0659C3.28688 54.0962 3.25697 54.1197 3.22235 54.1334C3.00782 54.2152 2.78523 54.2742 2.55829 54.3092C2.48262 54.3166 2.40987 54.3422 2.3463 54.3839C2.28274 54.4256 2.23026 54.4821 2.19338 54.5485C2.1565 54.6149 2.13633 54.6893 2.1346 54.7653C2.13286 54.8412 2.14962 54.9164 2.18343 54.9845C2.31425 55.2547 5.45388 61.653 9.93983 65.8867C15.1198 70.7338 21.3701 74.2927 28.184 76.275C33.112 77.7414 38.224 78.4985 43.3659 78.5234C48.507 78.4983 53.6182 77.7412 58.5455 76.275C65.3593 74.2927 71.6097 70.7338 76.7896 65.8867C81.2756 61.6507 84.4158 55.2523 84.546 54.9845C84.5794 54.9166 84.5959 54.8417 84.5941 54.7661C84.5923 54.6905 84.5722 54.6165 84.5355 54.5504C84.4989 54.4842 84.4467 54.4279 84.3836 54.3862C84.3205 54.3445 84.2482 54.3187 84.1729 54.311C83.9455 54.2745 83.7223 54.2156 83.5065 54.1352C83.472 54.1214 83.4421 54.0981 83.4205 54.0678C83.399 54.0376 83.3865 54.0019 83.3847 53.9648C83.3829 53.9277 83.3919 53.8909 83.4104 53.8587C83.429 53.8266 83.4565 53.8005 83.4895 53.7835C84.3232 53.3664 85.0716 52.7975 85.6964 52.1059C85.7666 52.0223 85.8059 51.917 85.8076 51.8078C85.8094 51.6986 85.7734 51.5921 85.7058 51.5063L85.7087 51.504ZM83.852 52.4799C83.273 52.8885 82.6217 53.1837 81.9326 53.3497C81.8479 53.3699 81.7704 53.4127 81.7084 53.4737C81.6464 53.5346 81.6022 53.6113 81.5806 53.6955C81.5594 53.7797 81.562 53.8681 81.5881 53.9509C81.6142 54.0337 81.6628 54.1076 81.7284 54.1645C82.1397 54.5211 82.6105 54.8028 83.1193 54.9968C83.1573 55.0111 83.1917 55.0333 83.2204 55.062C83.2491 55.0907 83.2713 55.1251 83.2857 55.1631C83.3 55.201 83.3061 55.2415 83.3035 55.282C83.3009 55.3225 83.2897 55.3619 83.2707 55.3977C82.2658 57.2775 79.5749 61.9625 76.1443 65.2015C64.7989 75.9168 50.738 77.5569 43.3676 77.5815C35.9955 77.5569 21.934 75.9174 10.5892 65.2015C7.16156 61.9637 4.46835 57.2775 3.46287 55.3977C3.4436 55.362 3.43219 55.3227 3.42938 55.2823C3.42658 55.2418 3.43246 55.2013 3.44663 55.1633C3.46079 55.1254 3.48292 55.0909 3.51152 55.0621C3.54012 55.0334 3.57454 55.0111 3.61246 54.9968C4.12223 54.8033 4.59387 54.5216 5.0057 54.1645C5.07136 54.1076 5.11995 54.0337 5.14605 53.9509C5.17215 53.8681 5.17474 53.7797 5.15353 53.6955C5.13196 53.6113 5.08777 53.5346 5.02574 53.4737C4.9637 53.4127 4.88619 53.3699 4.80155 53.3497C4.11245 53.1836 3.46113 52.8885 2.88211 52.4799C2.85065 52.4581 2.82628 52.4276 2.81204 52.3921C2.79779 52.3566 2.79429 52.3177 2.80198 52.2802C2.80967 52.2428 2.8282 52.2084 2.85527 52.1814C2.88234 52.1543 2.91676 52.1358 2.95426 52.1282C3.68087 52.0087 4.37189 51.7296 4.97754 51.3111C5.04574 51.2607 5.099 51.1928 5.13164 51.1145C5.16428 51.0363 5.17509 50.9507 5.16292 50.8668C5.10425 50.4718 5.05674 50.0497 5.01333 49.6131C4.96053 49.0627 4.91888 48.4994 4.89013 47.932C4.80855 46.114 4.85344 44.2926 5.02447 42.4809C5.30696 39.5892 5.83307 36.7265 6.59722 33.9232C6.9469 32.6286 7.36457 31.3533 7.8485 30.1027L7.85437 30.0915C7.85789 30.0804 7.86199 30.071 7.86551 30.0593C7.86903 30.0476 7.86551 30.0534 7.86903 30.0499C7.87666 30.0271 7.8878 30.0025 7.89719 29.9778C11.6411 20.5099 18.9304 12.8724 28.218 8.68677C29.1699 8.26123 30.1402 7.87359 31.1288 7.52386C32.2153 7.14013 33.3168 6.80486 34.4333 6.51804C34.8627 6.40667 35.3132 6.29882 35.7638 6.20035C36.3524 6.06983 36.9449 5.95377 37.5413 5.85218L37.7818 5.81232C37.8575 5.79884 37.9349 5.78594 38.0106 5.77422C38.0136 5.77334 38.0169 5.77334 38.0199 5.77422C38.1731 5.7496 38.3268 5.72674 38.4799 5.70447C40.0975 5.46667 41.7283 5.32964 43.363 5.29417C44.9929 5.33053 46.619 5.46756 48.232 5.70447C48.2625 5.70799 48.2906 5.71209 48.3229 5.71795C48.5839 5.75605 48.8432 5.79942 49.1049 5.8428L49.1729 5.85393C49.3223 5.87855 49.4719 5.90512 49.6217 5.93365H49.6252C50.0716 6.01688 50.5169 6.10598 50.9598 6.20386C51.4121 6.30233 51.8591 6.41018 52.2885 6.52155C53.4031 6.807 54.5089 7.14404 55.593 7.52737C56.5809 7.87554 57.5541 8.26474 58.5038 8.69028C67.7918 12.8759 75.0818 20.5133 78.8264 29.9814L78.9062 30.1853C78.9062 30.1853 78.9062 30.1853 78.9062 30.1889C79.3785 31.4121 79.7854 32.6596 80.1252 33.9261C80.8908 36.7292 81.4175 39.5919 81.6997 42.4838C81.8707 44.2955 81.9156 46.117 81.834 47.9349C81.8059 48.5006 81.7642 49.0679 81.7091 49.616C81.6674 50.0527 81.6181 50.4747 81.5612 50.8697C81.5491 50.9536 81.5599 51.0392 81.5925 51.1175C81.6252 51.1957 81.6784 51.2636 81.7466 51.314C82.3523 51.7326 83.0433 52.0116 83.7699 52.1311C83.8072 52.138 83.8417 52.1557 83.8692 52.1818C83.8967 52.208 83.9159 52.2416 83.9246 52.2786C83.9332 52.3155 83.9309 52.3542 83.9179 52.3898C83.9049 52.4255 83.8818 52.4566 83.8514 52.4793L83.852 52.4799Z" fill="black"/>
<path id="Vector_10" d="M85.934 51.3276C85.861 51.2372 85.7683 51.1646 85.663 51.1154C85.5577 51.0662 85.4425 51.0418 85.3262 51.0439C84.4792 51.0664 83.6378 50.9011 82.8624 50.5598C82.8593 50.5587 82.8567 50.5566 82.855 50.5538C82.8533 50.5511 82.8526 50.5478 82.853 50.5445C82.887 50.2855 82.9175 50.0111 82.9439 49.7351C82.9991 49.1812 83.0425 48.5944 83.0706 47.9895C83.1555 46.1145 83.1101 44.2359 82.9345 42.3672C82.6451 39.4057 82.1056 36.4739 81.3219 33.6032C80.9743 32.3085 80.5611 31.0322 80.0841 29.7792L79.9803 29.5108C79.9293 29.3801 79.8765 29.2458 79.8231 29.1134L79.7926 29.0378C79.7756 28.9961 79.7585 28.9545 79.7415 28.9094L79.7057 28.8244C79.6131 28.5993 79.5204 28.376 79.4218 28.1533C78.9525 27.0736 78.4322 26.0009 77.8678 24.9687C77.7863 24.8175 77.7053 24.6681 77.6197 24.5186C76.2395 22.0668 74.6033 19.768 72.7384 17.6607C68.9315 13.3617 64.2539 9.92009 59.0154 7.5638C56.946 6.63784 54.8013 5.88994 52.6047 5.32825C52.1636 5.21102 51.7019 5.10317 51.2326 4.99942C50.8161 4.90681 50.379 4.81948 49.9361 4.73683C49.563 4.66708 49.2228 4.60847 48.8931 4.55689L48.8726 4.55337C48.3499 4.47014 47.8313 4.39804 47.328 4.34177H47.3221C44.4795 2.9314 41.4341 1.97286 38.2957 1.50073C38.1918 1.48374 38.1232 1.4726 38.095 1.46674L35.7345 0.889973C35.7306 0.889196 35.7266 0.889824 35.7232 0.891742C35.7197 0.89366 35.7171 0.896742 35.7158 0.900428C35.7144 0.904114 35.7144 0.908162 35.7158 0.911835C35.7172 0.915509 35.7199 0.918566 35.7233 0.920453L37.902 1.99661C37.9284 2.01009 37.9912 2.03471 38.0874 2.07222C39.9576 2.79494 40.8129 3.49831 41.186 4.05222C41.1121 4.12959 41.1273 4.11669 41.0499 4.19406C37.1412 1.8999 28.7964 2.74922 28.272 2.78732C28.2643 2.78732 27.7211 2.80432 27.7211 2.81194L35.8166 4.93378L35.5004 5.00177C35.044 5.102 34.5823 5.21337 34.1283 5.32884C31.9324 5.89141 29.7882 6.63907 27.7188 7.5638C22.479 9.91926 17.8 13.3603 13.9917 17.659C12.1286 19.7673 10.4931 22.066 9.1121 24.5168C9.0288 24.6663 8.94374 24.8158 8.8622 24.967C8.2961 26.005 7.77576 27.0771 7.30998 28.1515C7.20204 28.4012 7.0941 28.6544 6.99027 28.9082C6.87881 29.1808 6.77263 29.4527 6.66645 29.7253L6.5984 29.9011L6.60192 29.9047C6.14272 31.1168 5.74545 32.3514 5.41165 33.6038C4.62953 36.4746 4.09105 39.4061 3.80194 42.3672C3.62654 44.2359 3.58106 46.1145 3.66585 47.9895C3.69635 48.5985 3.738 49.1847 3.79256 49.7316C3.81896 50.0059 3.85122 50.2743 3.88173 50.5316C3.88251 50.5349 3.88219 50.5384 3.88081 50.5414C3.87943 50.5445 3.87707 50.547 3.8741 50.5486C3.10625 50.8984 2.26845 51.0678 1.42493 51.0439C1.26016 51.0388 1.09798 51.0858 0.961491 51.1782C0.875918 51.2385 0.803803 51.3159 0.749704 51.4055C0.695606 51.4952 0.6607 51.595 0.647193 51.6988C0.633686 51.8026 0.641871 51.908 0.671231 52.0085C0.700591 52.109 0.750487 52.2022 0.817768 52.2824C1.41612 52.9533 2.1285 53.5131 2.922 53.936C2.79343 53.9745 2.66254 54.0048 2.53013 54.0268C2.40935 54.0394 2.29339 54.0809 2.19213 54.1479C2.09087 54.2149 2.00731 54.3053 1.94855 54.4115C1.88979 54.5177 1.85758 54.6365 1.85466 54.7578C1.85174 54.8791 1.8782 54.9994 1.93177 55.1082C1.96228 55.1745 5.17759 61.7786 9.74859 66.0961C14.9602 70.9729 21.2487 74.554 28.1042 76.5488C33.0591 78.0241 38.1992 78.7858 43.3694 78.8107C48.5382 78.7857 53.677 78.024 58.6305 76.5488C65.4866 74.5536 71.7758 70.9727 76.9885 66.0961C81.5595 61.7786 84.7736 55.1745 84.8053 55.1082C84.8575 55 84.8831 54.8808 84.8799 54.7607C84.8768 54.6406 84.845 54.5229 84.7873 54.4175C84.7295 54.3122 84.6474 54.222 84.5478 54.1547C84.4482 54.0873 84.334 54.0447 84.2146 54.0303H84.2111C84.0759 54.0086 83.9424 53.9777 83.8116 53.9377C84.6034 53.513 85.3156 52.9544 85.9164 52.2865C86.0283 52.153 86.091 51.9851 86.0941 51.811C86.0972 51.6368 86.0405 51.4668 85.9334 51.3294L85.934 51.3276ZM7.60447 29.9516C7.60263 29.9544 7.60143 29.9576 7.60095 29.9609V29.9574C7.60187 29.9553 7.60306 29.9534 7.60447 29.9516Z" fill="black"/>
<g id="Group_9">
<path id="Vector_11" d="M24.2718 100.157C24.2641 99.5467 21.9493 100.6 21.9534 99.9851C21.9501 96.7327 22.1657 93.4838 22.5987 90.2604C22.631 90.0218 22.6667 89.7838 22.7025 89.5476C22.8238 88.7591 22.955 87.9957 23.0962 87.2576C23.8758 83.188 17.7643 76.6138 19.96 74.6455C20.3478 74.2973 21.8185 74.1725 22.8087 74.1502C23.5754 73.9556 23.7438 73.6772 24.7845 73.4639C27.0764 72.9949 29.5995 72.4445 30.4454 71.6784C33.7652 68.6698 38.0182 67.3762 43.1876 67.3516H43.309C48.4784 67.3762 52.7291 68.6715 56.0488 71.6784C57.2092 72.7282 60.1182 72.7922 62.6959 73.2218C64.3009 73.4903 59.751 73.5963 66.6216 74.7821C66.9454 74.8407 67.0322 75.2909 67.1572 75.6027C68.287 78.3998 63.1846 85.5865 63.7917 89.5464C64.2985 93.0113 64.5491 96.5087 64.5414 100.01C64.5449 100.625 63.3998 100.347 63.3928 100.956" fill="white"/>
<path id="Vector_12" d="M38.0646 99.283C39.1246 99.283 39.984 98.4243 39.984 97.3651C39.984 96.3059 39.1246 95.4473 38.0646 95.4473C37.0045 95.4473 36.1451 96.3059 36.1451 97.3651C36.1451 98.4243 37.0045 99.283 38.0646 99.283Z" fill="#0D1338"/>
<path id="Vector_13" d="M38.0874 91.6502C39.1475 91.6502 40.0069 90.7915 40.0069 89.7323C40.0069 88.6731 39.1475 87.8145 38.0874 87.8145C37.0273 87.8145 36.168 88.6731 36.168 89.7323C36.168 90.7915 37.0273 91.6502 38.0874 91.6502Z" fill="#0D1338"/>
<path id="Vector_14" d="M48.4062 99.283C49.4663 99.283 50.3257 98.4243 50.3257 97.3651C50.3257 96.3059 49.4663 95.4473 48.4062 95.4473C47.3461 95.4473 46.4868 96.3059 46.4868 97.3651C46.4868 98.4243 47.3461 99.283 48.4062 99.283Z" fill="#0D1338"/>
<path id="Vector_15" d="M48.4273 91.6502C49.4874 91.6502 50.3468 90.7915 50.3468 89.7323C50.3468 88.6731 49.4874 87.8145 48.4273 87.8145C47.3673 87.8145 46.5079 88.6731 46.5079 89.7323C46.5079 90.7915 47.3673 91.6502 48.4273 91.6502Z" fill="#0D1338"/>
<path id="Vector_16" d="M40.9901 75.2036C40.0057 76.2627 39.0067 77.3442 38.0411 78.3904C36.6631 79.8845 35.3608 81.2936 34.0908 82.6511C31.8655 85.0136 30.5487 88.0866 30.3733 91.326C30.1292 96.1828 30.1498 102.164 30.2483 107.291C29.9227 107.25 29.6083 107.205 29.3021 107.161C29.2053 102.049 29.1848 96.1125 29.4306 91.2762C29.6176 87.8146 31.0242 84.5307 33.4015 82.0058C34.6697 80.6518 35.972 79.2427 37.3477 77.7503C38.3133 76.7047 39.3123 75.6226 40.2984 74.5617C40.384 74.4699 40.5026 74.4159 40.6281 74.4114C40.7535 74.407 40.8756 74.4525 40.9675 74.538C41.0594 74.6235 41.1135 74.7419 41.1179 74.8673C41.1224 74.9927 41.0768 75.1147 40.9913 75.2065L40.9901 75.2036Z" fill="#0D1338"/>
<path id="Vector_17" d="M23.0909 90.1425C22.7976 90.0253 22.4966 89.9081 22.188 89.7815L23.0909 90.1425ZM64.3079 89.7874C63.9994 89.9105 63.6967 90.0277 63.4051 90.139L64.3079 89.7874Z" fill="black"/>
<path id="Vector_18" d="M22.1065 90.3635C22.1839 89.3349 23.5355 83.1411 24.1791 83.6065C24.2417 83.6305 24.2928 83.6777 24.3217 83.7382C24.3506 83.7987 24.3552 83.868 24.3345 83.9318C24.0157 85.0012 23.7554 86.0872 23.5549 87.1849C23.339 88.2798 23.2064 89.3976 23.0381 90.4984C23.0108 90.6135 22.9414 90.7142 22.8435 90.7807C22.7455 90.8472 22.6262 90.8746 22.5091 90.8575C22.3919 90.8405 22.2854 90.7801 22.2106 90.6885C22.1357 90.5968 22.098 90.4805 22.1048 90.3624L22.1065 90.3635Z" fill="#0D1338"/>
<path id="Vector_19" d="M64.3813 90.3899C64.2282 88.5875 62.9599 83.1411 62.3163 83.6065C62.2537 83.6305 62.2026 83.6776 62.1737 83.7381C62.1448 83.7987 62.1402 83.868 62.1609 83.9318C62.4797 85.0012 62.74 86.0871 62.9405 87.1849C63.1564 88.2798 63.2866 89.3975 63.4532 90.5001C63.4777 90.6143 63.544 90.7154 63.6391 90.7833C63.7343 90.8513 63.8514 90.8813 63.9675 90.8675C64.0836 90.8537 64.1904 90.7971 64.2669 90.7088C64.3435 90.6204 64.3843 90.5067 64.3813 90.3899Z" fill="#0D1338"/>
</g>
</g>
<path id="Vector_20" d="M85.3374 51.7988C85.3374 51.7988 85.3204 51.8193 85.3033 51.8387C84.4276 52.7972 83.293 53.4822 82.0364 53.811C82.6275 54.322 83.3503 54.6569 84.1225 54.7776C82.7514 57.4823 81.1251 60.0501 79.2658 62.4461C78.5936 63.3052 77.8751 64.127 77.1134 64.9079C76.9015 65.1256 76.6864 65.3379 76.4681 65.545C75.9703 66.014 75.4673 66.4666 74.9593 66.9031C73.2653 68.3565 71.4609 69.6761 69.5624 70.8502C69.4714 70.9088 69.3823 70.9616 69.2937 71.0149C66.193 72.892 62.8827 74.3995 59.4307 75.5065C54.2377 77.1674 48.8213 78.0264 43.3688 78.0539C37.9154 78.0266 32.498 77.1675 27.304 75.5065C23.8526 74.3995 20.5429 72.892 17.4428 71.0149C17.3747 70.9751 17.3067 70.9335 17.2404 70.8918C15.3177 69.7085 13.4912 68.3758 11.7777 66.9061C11.2693 66.4692 10.7652 66.0159 10.2654 65.5462C10.0366 65.327 9.80901 65.1037 9.58785 64.8768C9.19207 64.472 8.80978 64.0553 8.44099 63.6266C8.15706 63.2995 7.88135 62.9674 7.61385 62.6301C5.71129 60.2051 4.04863 57.6014 2.64921 54.8555C2.62458 54.8045 2.61108 54.7782 2.61108 54.7782C2.65561 54.7737 2.69986 54.7668 2.74366 54.7577C3.4391 54.623 4.08935 54.3153 4.63436 53.8632C4.65489 53.8462 4.67601 53.8292 4.69303 53.8122C3.43687 53.4835 2.30283 52.7985 1.42785 51.8398C1.41065 51.8211 1.3993 51.8078 1.39383 51.8H1.44311C2.43643 51.8256 3.42109 51.6095 4.3123 51.1705C4.38035 51.1347 4.44078 51.0984 4.49416 51.0667C4.56292 51.0264 4.62932 50.9822 4.69303 50.9342C4.68716 50.8961 4.68364 50.8586 4.67777 50.817C4.62498 50.4348 4.58098 50.0492 4.54168 49.6594C4.48692 49.0979 4.44586 48.5293 4.41848 47.9537C4.33437 46.1139 4.37926 44.2705 4.55282 42.4369C4.83635 39.5184 5.36779 36.6292 6.14141 33.8007C7.96805 27.1026 11.5372 21.0074 16.4861 16.1346C21.4349 11.2618 27.5869 7.78526 34.3166 6.05851C34.7612 5.94128 35.2118 5.83754 35.6623 5.73672C36.3248 5.59097 36.9941 5.4624 37.6703 5.35104C36.1199 3.50527 31.3864 3.21572 31.2843 3.08149C32.2399 3.06625 37.2409 3.32357 40.9314 4.94601C40.9789 4.96653 41.0282 4.99114 41.0751 5.01576C41.2188 4.98763 41.5503 4.92667 41.8717 4.87743H41.8852C42.1082 4.8373 42.3345 4.81768 42.561 4.81882C42.488 4.35734 42.2874 3.92542 41.9818 3.57176C41.6763 3.21809 41.2779 2.95673 40.8317 2.81714C40.9302 2.84 46.0744 4.00877 46.8035 5.04097C48.2365 5.19544 49.66 5.4277 51.0677 5.73672C51.52 5.83695 51.9688 5.94304 52.417 6.05851C59.1463 7.78553 65.2979 11.2622 70.2464 16.1349C75.1949 21.0077 78.7639 27.1029 80.5904 33.8007C81.3629 36.6296 81.8942 39.5189 82.1784 42.4375C82.3519 44.271 82.3968 46.1145 82.3127 47.9543C82.2842 48.5291 82.2425 49.0977 82.1878 49.66C82.1487 50.0507 82.1039 50.4366 82.0534 50.8176C82.0476 50.8575 82.0423 50.895 82.0364 50.9348C82.0763 50.9653 82.1309 51.0028 82.2012 51.0462C82.2505 51.0767 82.3074 51.1107 82.3714 51.1464C82.7161 51.3323 83.0821 51.4758 83.4613 51.5737C84.0581 51.7269 84.672 51.8031 85.2881 51.8006L85.3374 51.7988Z" fill="white"/>
<path id="Vector_21" opacity="0.49" d="M84.8833 51.9296C84.8833 51.9296 84.8663 51.9484 84.851 51.9677C83.7363 52.7837 82.473 53.3747 81.1318 53.7074C81.9246 54.284 82.8208 54.7032 83.7717 54.9424C82.2755 57.4995 80.614 59.9564 78.7976 62.2973C78.1635 63.1033 75.0954 66.0152 74.6126 66.4296C72.9431 67.861 69.0819 70.0362 68.9968 70.0854C66.1173 71.8151 63.1379 73.373 60.0742 74.7511C58.7473 75.366 49.3442 78.3852 45.886 77.3301C61.1794 72.6627 65.1069 55.4852 65.1069 38.6781C65.1069 35.5633 70.2692 36.9062 69.5512 34.0142C71.0694 30.3414 66.8292 19.4162 62.8771 15.3537C58.7121 11.0702 48.757 5.99063 48.0718 5.5481C49.3002 5.6958 56.4395 7.99524 58.3624 8.85394C67.8605 13.0976 76.6617 23.1383 79.7527 34.6572C80.4893 37.3497 80.9952 40.1001 81.265 42.8784C81.431 44.6238 81.4739 46.3788 81.3935 48.1302C81.3653 48.6789 81.3272 49.2193 81.2761 49.755C81.2403 50.1255 81.1963 50.4947 81.1477 50.8576C81.1418 50.8957 81.1383 50.9314 81.1324 50.9672C81.1705 50.9953 81.2216 51.0316 81.2896 51.0733C81.3348 51.1014 81.3899 51.1319 81.4504 51.17C81.7793 51.3462 82.1281 51.4828 82.4893 51.5768C83.2583 51.7694 84.0441 51.8871 84.8358 51.9284H84.8833V51.9296Z" fill="#C5EFFF"/>
<g id="Group_10">
<path id="Vector_22" d="M47.7896 50.9718C47.6418 52.0269 46.2885 53.7484 44.5045 53.4987C42.7206 53.249 41.2194 51.5697 41.3661 50.5123C41.5127 49.4549 42.8573 49.6178 44.7503 49.6214C46.5313 49.6214 47.9398 49.9144 47.7902 50.9736L47.7896 50.9718Z" fill="black"/>
<path id="Vector_23" d="M50.8783 56.2524C50.6927 56.3301 50.5147 56.4244 50.3462 56.5343C50.379 57.0779 50.3568 57.6235 50.2799 58.1626C49.7519 61.8975 46.8188 64.5756 43.7161 64.1413C40.6135 63.707 38.7192 60.6197 39.0031 57.087C38.7587 56.8279 38.4791 56.6044 38.1725 56.4229C37.6334 56.1673 37.2132 55.7146 36.9987 55.1583C36.7842 54.602 36.7917 53.9845 37.0198 53.4336C37.1032 53.1647 37.2332 52.9126 37.404 52.6886C37.58 52.4407 37.8622 52.6206 37.7865 52.9043C37.7864 52.9117 37.7844 52.919 37.7806 52.9254C37.2773 54.8656 38.0382 55.675 39.1926 56.5009C40.0733 57.0006 41.0908 57.2061 42.0966 57.0874C43.1024 56.9686 44.0439 56.5319 44.7838 55.8409C45.4456 56.3328 46.2242 56.6442 47.0429 56.7443C47.8616 56.8444 48.6924 56.7298 49.4534 56.4118C50.9129 55.6627 51.9917 55.0314 51.713 52.8363V52.8152C51.6749 52.5257 51.9782 52.3821 52.1237 52.6505C52.2636 52.8958 52.3602 53.1633 52.4094 53.4412C52.5637 54.0161 52.4916 54.6283 52.2079 55.1517C51.9242 55.6751 51.4504 56.0698 50.8841 56.2547L50.8783 56.2524Z" fill="black"/>
<g id="Group_11">
<path id="Vector_24" d="M33.6073 49.779C32.9885 54.1856 30.6742 60.3055 21.5011 58.4199C15.9235 57.274 14.4205 51.9296 15.6694 47.6572C17.5073 41.3725 22.2297 39.4893 26.6394 40.1094C31.0491 40.7295 34.228 45.3724 33.6073 49.779Z" fill="black"/>
<path id="Vector_25" d="M24.7264 49.7672C25.5668 49.7672 26.2481 49.0865 26.2481 48.2468C26.2481 47.407 25.5668 46.7263 24.7264 46.7263C23.886 46.7263 23.2047 47.407 23.2047 48.2468C23.2047 49.0865 23.886 49.7672 24.7264 49.7672Z" fill="white"/>
<path id="Vector_26" d="M27.6566 54.3632C28.451 54.3632 29.095 53.7197 29.095 52.926C29.095 52.1322 28.451 51.4888 27.6566 51.4888C26.8622 51.4888 26.2182 52.1322 26.2182 52.926C26.2182 53.7197 26.8622 54.3632 27.6566 54.3632Z" fill="white"/>
</g>
<path id="Vector_27" d="M29.7233 35.6687C29.4845 36.3422 28.3793 35.1734 23.2047 36.1376C19.7582 36.7824 17.5924 39.396 16.8104 38.4318C16.4696 38.0121 19.1839 35.8732 22.6005 35.1259C25.8316 34.4184 29.9767 34.9577 29.7227 35.6687H29.7233Z" fill="black"/>
<path id="Vector_28" d="M48.645 60.1027C48.6092 60.513 48.4626 60.9057 48.2208 61.2393C47.67 62.1923 44.8231 63.728 43.8939 63.2421C42.9553 62.7521 42.7599 61.6513 43.0914 60.632C43.3135 59.83 43.7192 59.0905 44.2764 58.4721C44.5294 58.1522 44.8586 57.9008 45.2338 57.7406C45.609 57.5803 46.0183 57.5165 46.4246 57.5547C46.7378 57.5763 47.0438 57.6594 47.3249 57.7991C47.606 57.9388 47.8569 58.1325 48.0631 58.3691C48.2692 58.6058 48.4268 58.8806 48.5266 59.1781C48.6265 59.4755 48.6667 59.7898 48.645 60.1027Z" fill="#CE111F"/>
<g id="Group_12">
<path id="Vector_29" d="M55.3571 46.0499C54.7212 50.5632 55.2703 57.2452 64.8376 57.9796C70.6558 58.4239 73.6482 53.5835 73.6259 49.0251C73.5919 42.3149 69.4749 39.1269 64.9532 38.491C60.4315 37.855 55.9913 41.5336 55.3548 46.0522L55.3571 46.0499Z" fill="black"/>
<path id="Vector_30" d="M62.1351 48.2685C62.9965 48.2685 63.6949 47.5707 63.6949 46.7099C63.6949 45.8492 62.9965 45.1514 62.1351 45.1514C61.2736 45.1514 60.5752 45.8492 60.5752 46.7099C60.5752 47.5707 61.2736 48.2685 62.1351 48.2685Z" fill="white"/>
<path id="Vector_31" d="M60.3306 52.2999C61.1438 52.2999 61.803 51.6412 61.803 50.8286C61.803 50.0161 61.1438 49.3574 60.3306 49.3574C59.5174 49.3574 58.8582 50.0161 58.8582 50.8286C58.8582 51.6412 59.5174 52.2999 60.3306 52.2999Z" fill="white"/>
</g>
<path id="Vector_32" d="M70.9404 36.6235C70.4916 37.1816 69.8369 35.7103 64.6335 34.9179C61.1677 34.3903 58.2604 36.1394 57.8386 34.9706C57.6568 34.4601 60.9255 33.3365 64.3971 33.762C67.6811 34.1612 71.4149 36.0374 70.9404 36.6235Z" fill="black"/>
<path id="Vector_33" d="M42.1363 70.2225C42.9316 70.6019 43.8013 70.8 44.6825 70.8023C45.5638 70.8046 46.4345 70.6112 47.2318 70.236C47.2542 70.2271 47.2791 70.2265 47.302 70.2343C47.3248 70.242 47.3442 70.2576 47.3566 70.2783C47.3691 70.2989 47.3738 70.3233 47.3699 70.3471C47.3661 70.3709 47.3539 70.3926 47.3356 70.4083C46.5549 70.9452 45.6289 71.2317 44.6811 71.2297C43.7333 71.2277 42.8086 70.9373 42.0301 70.3971C42.0198 70.3888 42.0113 70.3785 42.005 70.3668C41.9987 70.3551 41.9948 70.3423 41.9935 70.3291C41.9923 70.3158 41.9937 70.3025 41.9977 70.2898C42.0016 70.2772 42.0081 70.2654 42.0167 70.2553C42.0307 70.2387 42.0496 70.2271 42.0707 70.2221C42.0918 70.217 42.114 70.2188 42.134 70.2272L42.1363 70.2225Z" fill="#0D1338"/>
</g>
<g id="Group_13">
<g id="Group_14">
<path id="Vector_34" d="M56.5058 80.783H29.3901V104.19H56.5058V80.783Z" fill="#B18964"/>
<path id="Vector_35" d="M56.5058 104.661H29.3907C29.2662 104.661 29.1468 104.612 29.0588 104.524C28.9708 104.436 28.9214 104.317 28.9214 104.192V80.7848C28.9214 80.6605 28.9708 80.5412 29.0588 80.4533C29.1468 80.3653 29.2662 80.3159 29.3907 80.3159H56.5064C56.6309 80.3159 56.7502 80.3653 56.8382 80.4533C56.9262 80.5412 56.9757 80.6605 56.9757 80.7848V104.192C56.9758 104.254 56.9637 104.315 56.9401 104.372C56.9165 104.429 56.8819 104.48 56.8382 104.524C56.7946 104.568 56.7427 104.602 56.6857 104.626C56.6287 104.649 56.5675 104.661 56.5058 104.661ZM29.8617 103.718H56.033V81.2537H29.8617V103.718Z" fill="black"/>
</g>
<g id="Group_15">
<path id="Vector_36" d="M26.6153 108.599L29.3901 104.191V80.7837L26.6153 87.9874V108.599Z" fill="#B18964"/>
<path id="Vector_37" d="M26.6148 109.07C26.5705 109.07 26.5264 109.064 26.4839 109.051C26.3856 109.023 26.2992 108.963 26.2377 108.881C26.1762 108.799 26.143 108.7 26.1431 108.597V87.985C26.1434 87.9268 26.1543 87.8692 26.1754 87.815L28.9501 80.6113C28.987 80.5056 29.0606 80.4166 29.1575 80.3603C29.2544 80.3041 29.3682 80.2843 29.4784 80.3047C29.5886 80.325 29.6879 80.384 29.7583 80.4711C29.8287 80.5582 29.8656 80.6676 29.8623 80.7795V104.187C29.8624 104.276 29.8374 104.363 29.7902 104.438L27.0154 108.846C26.9732 108.914 26.9144 108.97 26.8445 109.009C26.7746 109.048 26.6959 109.068 26.6159 109.068L26.6148 109.07ZM27.0841 88.0741V106.961L28.9143 104.053V83.3211L27.0841 88.0741Z" fill="#0D1338"/>
</g>
<g id="Group_16">
<path id="Vector_38" d="M59.2811 108.599L56.5064 104.191V80.7837L59.2811 87.9874V108.599Z" fill="#B18964"/>
<path id="Vector_39" d="M59.2811 109.07C59.2011 109.07 59.1225 109.05 59.0526 109.011C58.9827 108.972 58.9238 108.916 58.8816 108.848L56.1069 104.44C56.0597 104.364 56.0347 104.277 56.0347 104.188V80.7813C56.0314 80.6693 56.0683 80.5599 56.1387 80.4728C56.2091 80.3857 56.3085 80.3267 56.4187 80.3064C56.5288 80.2861 56.6427 80.3058 56.7396 80.362C56.8365 80.4183 56.91 80.5073 56.9469 80.613L59.7217 87.8167C59.7427 87.871 59.7537 87.9285 59.754 87.9867V108.599C59.7537 108.701 59.7203 108.801 59.6589 108.882C59.5975 108.964 59.5113 109.024 59.4131 109.053C59.3707 109.065 59.3266 109.072 59.2823 109.071L59.2811 109.07ZM56.9774 104.052L58.8077 106.961V88.0735L56.9804 83.3187L56.9774 104.052Z" fill="black"/>
</g>
<path id="Vector_40" d="M40.8405 95.5136L40.3559 95.7727C39.3424 96.3123 38.1558 96.4275 37.0572 96.093C35.9586 95.7585 35.038 95.0017 34.4979 93.989L24.0934 74.4851C23.5538 73.4723 23.4388 72.2868 23.7735 71.1893C24.1082 70.0918 24.8654 69.1719 25.8785 68.6319L26.3631 68.3728C27.3766 67.8332 28.5632 67.7179 29.6618 68.0524C30.7604 68.3869 31.681 69.1438 32.2212 70.1564L42.3868 89.2137L42.6256 89.6598C42.8931 90.1612 43.0591 90.7104 43.1142 91.276C43.1692 91.8416 43.1123 92.4125 42.9465 92.9561C42.7807 93.4997 42.5094 94.0053 42.1481 94.4441C41.7867 94.883 41.3424 95.2463 40.8405 95.5136Z" fill="#CC8B1F"/>
<g id="Group_17" opacity="0.4">
<path id="Vector_41" d="M42.2232 93.125C42.1702 92.5523 42.0029 91.9961 41.731 91.4891L31.3266 71.9852C30.7864 70.9725 29.8658 70.2157 28.7672 69.8812C27.6686 69.5467 26.482 69.662 25.4685 70.2016L24.9839 70.4606C24.4877 70.7247 24.0479 71.0831 23.6892 71.5157C23.824 70.9059 24.0895 70.3325 24.4676 69.8353C24.8457 69.338 25.3273 68.9286 25.8791 68.6354L26.3637 68.3763C27.3772 67.8367 28.5637 67.7213 29.6623 68.0557C30.7608 68.3901 31.6815 69.1468 32.2218 70.1594L42.3874 89.2167C42.6689 89.8358 42.8005 90.5125 42.7716 91.1919C42.7426 91.8713 42.554 92.5344 42.2208 93.1274L42.2232 93.125Z" fill="white"/>
</g>
<path id="Vector_42" d="M38.3297 96.752C37.4577 96.7528 36.6019 96.5168 35.8538 96.0691C35.1057 95.6214 34.4934 94.979 34.0825 94.2105L23.6781 74.7054C23.3814 74.1492 23.1973 73.5401 23.1362 72.9128C23.0751 72.2854 23.1383 71.6522 23.3222 71.0493C23.506 70.4464 23.807 69.8856 24.2077 69.3989C24.6085 68.9122 25.1013 68.5091 25.6579 68.2127L26.1425 67.9536C26.6992 67.6572 27.3088 67.4732 27.9367 67.4122C28.5645 67.3512 29.1982 67.4143 29.8016 67.598C30.405 67.7817 30.9663 68.0824 31.4534 68.4828C31.9405 68.8832 32.3439 69.3756 32.6406 69.9318L43.0444 89.437C43.3411 89.9932 43.5252 90.6023 43.5863 91.2296C43.6474 91.8569 43.5842 92.4901 43.4003 93.093C43.2165 93.6959 42.9156 94.2567 42.5148 94.7434C42.114 95.2302 41.6212 95.6332 41.0646 95.9296L40.58 96.1887C39.8877 96.5585 39.1148 96.752 38.3297 96.752ZM28.3963 68.3334C27.7647 68.3339 27.1429 68.4905 26.5866 68.7895L26.102 69.0486C25.1989 69.5297 24.5241 70.3496 24.226 71.3279C23.9278 72.3062 24.0308 73.3628 24.5123 74.2652L34.9167 93.7691C35.399 94.6708 36.2196 95.3445 37.1984 95.6423C38.1772 95.9401 39.2343 95.8377 40.1377 95.3576L40.6222 95.0985C41.5254 94.6173 42.2002 93.7974 42.4983 92.8191C42.7964 91.8408 42.6935 90.7843 42.212 89.8818L31.8076 70.3779C31.4776 69.7606 30.986 69.2445 30.3853 68.8847C29.7846 68.5249 29.0973 68.335 28.3969 68.3352L28.3963 68.3334Z" fill="black"/>
<path id="Vector_43" d="M28.5578 71.1749L26.9468 73.7569C26.6957 74.1593 26.8187 74.689 27.2214 74.9399C27.6242 75.1908 28.1543 75.0679 28.4054 74.6655L30.0164 72.0834C30.2675 71.681 30.1445 71.1514 29.7417 70.9005C29.339 70.6496 28.8089 70.7724 28.5578 71.1749Z" fill="#EAD67D"/>
<path id="Vector_44" d="M30.3705 74.5728L28.7595 77.1548C28.5084 77.5573 28.6313 78.0869 29.0341 78.3378C29.4369 78.5887 29.967 78.4659 30.2181 78.0634L31.8291 75.4814C32.0802 75.0789 31.9572 74.5493 31.5544 74.2984C31.1516 74.0475 30.6216 74.1704 30.3705 74.5728Z" fill="#EAD67D"/>
<path id="Vector_45" d="M32.1837 77.9705L30.5727 80.5526C30.3216 80.955 30.4446 81.4846 30.8474 81.7355C31.2502 81.9864 31.7802 81.8636 32.0313 81.4611L33.6423 78.8791C33.8934 78.4766 33.7705 77.947 33.3677 77.6961C32.9649 77.4452 32.4348 77.5681 32.1837 77.9705Z" fill="#EAD67D"/>
<path id="Vector_46" d="M33.9952 81.369L32.3843 83.951C32.1332 84.3534 32.2561 84.8831 32.6589 85.134C33.0617 85.3849 33.5917 85.262 33.8428 84.8596L35.4538 82.2775C35.7049 81.8751 35.582 81.3454 35.1792 81.0946C34.7764 80.8437 34.2463 80.9665 33.9952 81.369Z" fill="#EAD67D"/>
<g id="Group_18">
<g id="Group_19">
<path id="Vector_47" d="M48.9218 91.4457C45.6719 91.495 45.6097 87.6182 45.9201 84.946C45.2067 82.7274 45.5681 79.8342 45.8027 78.8073C44.5972 74.7905 46.827 73.7202 48.3047 73.6692C49.783 73.6182 51.6415 74.4277 51.1458 78.5295C51.4913 80.5835 51.5485 82.6757 51.3159 84.7455C51.7476 86.6745 52.3571 91.342 48.9218 91.444V91.4457Z" fill="#9C3202"/>
<g id="Group_20" opacity="0.35">
<path id="Vector_48" d="M46.1512 79.847C47.1258 80.063 48.0721 80.3911 48.9712 80.8247C49.2627 80.984 49.5872 81.0736 49.9192 81.0864C50.2513 81.0993 50.5818 81.0349 50.8847 80.8985C51.1211 80.8311 51.3323 80.6953 51.4916 80.5082C51.6509 80.321 51.7512 80.091 51.7799 79.847C51.6737 83.0069 50.758 84.1704 49.0451 83.6862C47.7343 83.2478 46.6391 82.3285 45.9805 81.1142C45.8978 80.9059 45.87 80.6797 45.8998 80.4575C45.9296 80.2354 46.016 80.0245 46.1507 79.8452L46.1512 79.847Z" fill="#0D1338"/>
</g>
<g id="Group_21" opacity="0.4">
<path id="Vector_49" d="M51.2038 77.9222C51.0091 75.5149 49.6252 74.9246 48.4308 74.9246C48.3874 74.9246 48.3458 74.9246 48.3041 74.9246C47.6132 74.9134 46.9428 75.1598 46.4238 75.6158C45.9048 76.0717 45.5745 76.7044 45.4971 77.3905C45.1604 74.529 47.0171 73.7119 48.3041 73.6667C48.3475 73.6667 48.3892 73.6667 48.4326 73.6667C49.8106 73.6667 51.442 74.4551 51.2038 77.9198V77.9222Z" fill="white"/>
</g>
<path id="Vector_50" d="M48.8608 91.9181C48.415 91.937 47.9703 91.8586 47.5578 91.6885C47.1453 91.5183 46.7748 91.2605 46.4721 90.9328C45.4707 89.8244 45.1228 87.8262 45.4385 84.9928C44.9362 82.9722 44.8935 80.8648 45.3135 78.8254C44.7855 76.9949 44.8876 75.5518 45.618 74.5343C45.9328 74.125 46.3363 73.7921 46.7981 73.5605C47.2599 73.329 47.7681 73.2048 48.2848 73.1973C48.7357 73.162 49.189 73.2273 49.6116 73.3886C50.0341 73.5499 50.4155 73.8031 50.7281 74.1299C51.5494 75.0261 51.8503 76.4996 51.6197 78.5118C51.9563 80.5658 52.0136 82.6557 51.7899 84.725C52.0797 86.0585 52.5601 89.1427 51.2619 90.8144C50.9848 91.1649 50.6307 91.4468 50.2269 91.6383C49.8231 91.8298 49.3805 91.9258 48.9336 91.9187H48.8597L48.8608 91.9181ZM48.4273 74.1386H48.3176C47.9453 74.141 47.5783 74.2271 47.2438 74.3905C46.9093 74.5538 46.6159 74.7903 46.3853 75.0823C45.8268 75.8596 45.7816 77.1004 46.2527 78.6701C46.2759 78.7474 46.2786 78.8294 46.2603 78.9081C46.0556 79.816 45.6737 82.6453 46.3665 84.7988C46.387 84.8629 46.3934 84.9307 46.3853 84.9975C46.0861 87.566 46.3571 89.3983 47.169 90.2945C47.3898 90.5295 47.6605 90.7121 47.9612 90.829C48.2619 90.9458 48.5849 90.9939 48.9066 90.9697C49.2136 90.9793 49.5187 90.9173 49.7976 90.7886C50.0765 90.6599 50.3216 90.468 50.5134 90.2283C51.6244 88.8004 51.0507 85.746 50.8501 84.8457C50.8381 84.7936 50.8356 84.7399 50.8425 84.6869C51.0702 82.6661 51.0147 80.6234 50.6776 78.6179C50.6681 78.5693 50.6661 78.5195 50.6718 78.4702C50.8818 76.7306 50.6606 75.4498 50.0318 74.7652C49.8228 74.554 49.5719 74.3889 49.2951 74.2804C49.0184 74.172 48.7219 74.1227 48.425 74.1357L48.4273 74.1386Z" fill="black"/>
</g>
<g id="Group_22">
<path id="Vector_51" d="M48.2486 71.8011L48.2481 71.8011C47.6327 71.8166 47.1464 72.3276 47.1618 72.9424L47.1618 72.943C47.1773 73.5579 47.6887 74.0438 48.3041 74.0283L48.3047 74.0283C48.9201 74.0129 49.4064 73.5019 49.3909 72.887L49.3909 72.8864C49.3754 72.2716 48.864 71.7856 48.2486 71.8011Z" fill="#9C3202"/>
<g id="Group_23" opacity="0.4">
<path id="Vector_52" d="M48.2486 71.8011L48.2481 71.8011C47.6327 71.8166 47.1464 72.3276 47.1618 72.9424L47.1618 72.943C47.1773 73.5579 47.6887 74.0438 48.3041 74.0283L48.3047 74.0283C48.9201 74.0129 49.4064 73.5019 49.3909 72.887L49.3909 72.8864C49.3754 72.2716 48.864 71.7856 48.2486 71.8011Z" fill="white"/>
</g>
<path id="Vector_53" d="M48.2801 74.4991C47.8594 74.5044 47.4538 74.3424 47.1526 74.0489C46.8514 73.7554 46.6792 73.3544 46.6739 72.9341C46.6686 72.5137 46.8306 72.1085 47.1244 71.8075C47.4181 71.5065 47.8195 71.3345 48.2402 71.3292H48.2801C48.7008 71.3239 49.1063 71.4858 49.4075 71.7793C49.7088 72.0728 49.881 72.4739 49.8863 72.8942C49.8915 73.3146 49.7295 73.7198 49.4358 74.0207C49.142 74.3217 48.7407 74.4938 48.32 74.4991H48.2801ZM48.2801 72.2676H48.263C48.1027 72.2841 47.9544 72.36 47.8473 72.4803C47.7401 72.6005 47.6819 72.7565 47.684 72.9175C47.6861 73.0785 47.7485 73.2329 47.8588 73.3503C47.9691 73.4677 48.1194 73.5396 48.2801 73.5519H48.2971C48.3817 73.55 48.4652 73.5313 48.5425 73.4969C48.6199 73.4625 48.6896 73.413 48.7476 73.3514C48.8063 73.2905 48.8522 73.2185 48.8824 73.1395C48.9126 73.0606 48.9267 72.9763 48.9236 72.8919C48.9187 72.7241 48.8486 72.5649 48.7281 72.448C48.6076 72.3311 48.4462 72.2658 48.2783 72.2659L48.2801 72.2676Z" fill="black"/>
</g>
<path id="Vector_54" d="M48.9213 91.6355C48.8723 91.6355 48.8252 91.6166 48.7899 91.5828C48.7546 91.5489 48.7338 91.5027 48.7318 91.4538L48.1188 74.0359C48.1179 74.0112 48.1219 73.9866 48.1306 73.9634C48.1393 73.9403 48.1525 73.9191 48.1694 73.901C48.1862 73.8829 48.2065 73.8683 48.229 73.8581C48.2516 73.8479 48.2759 73.8422 48.3007 73.8414C48.3504 73.8402 48.3987 73.8586 48.4351 73.8926C48.4715 73.9265 48.4931 73.9734 48.4954 74.0231L49.1108 91.4397C49.1116 91.4644 49.1076 91.4891 49.0989 91.5122C49.0902 91.5354 49.0771 91.5566 49.0602 91.5747C49.0433 91.5927 49.023 91.6073 49.0005 91.6176C48.978 91.6278 48.9537 91.6335 48.9289 91.6343H48.9213V91.6355Z" fill="black"/>
<path id="Vector_55" d="M47.924 79.0775C46.8094 79.0775 45.8667 79.0037 45.787 78.9961C45.737 78.9918 45.6908 78.9679 45.6585 78.9296C45.6262 78.8913 45.6105 78.8417 45.6148 78.7918C45.619 78.7419 45.643 78.6957 45.6813 78.6635C45.7197 78.6312 45.7693 78.6155 45.8192 78.6198C45.8591 78.6239 49.7279 78.9298 51.0736 78.3079C51.0961 78.2976 51.1204 78.2918 51.1452 78.2909C51.1699 78.29 51.1946 78.2939 51.2178 78.3025C51.241 78.3111 51.2623 78.3242 51.2804 78.341C51.2986 78.3578 51.3132 78.3781 51.3235 78.4006C51.3339 78.423 51.3397 78.4473 51.3406 78.472C51.3415 78.4967 51.3376 78.5214 51.3289 78.5446C51.3203 78.5677 51.3073 78.589 51.2904 78.6072C51.2736 78.6253 51.2533 78.6399 51.2308 78.6502C50.163 78.989 49.0429 79.1332 47.924 79.0758V79.0775Z" fill="black"/>
<path id="Vector_56" d="M47.9598 85.3292C46.8452 85.3292 45.9025 85.2554 45.8227 85.2478C45.7728 85.2435 45.7266 85.2196 45.6943 85.1813C45.662 85.143 45.6463 85.0934 45.6505 85.0435C45.6548 84.9936 45.6788 84.9474 45.7171 84.9152C45.7554 84.8829 45.805 84.8672 45.855 84.8715C45.8949 84.8756 49.7637 85.1815 51.1094 84.5596C51.1549 84.5388 51.2067 84.5369 51.2535 84.5542C51.3004 84.5716 51.3385 84.6069 51.3593 84.6523C51.3802 84.6977 51.3821 84.7495 51.3647 84.7963C51.3473 84.8431 51.312 84.8811 51.2666 84.9019C50.1988 85.2407 49.0787 85.3849 47.9598 85.3275V85.3292Z" fill="#0D1338"/>
</g>
<g id="Group_24">
<g id="Group_25">
<path id="Vector_57" d="M44.931 85.7174L41.6623 87.5931V77.0026L44.931 75.127V85.7174Z" fill="#3996D1"/>
<path id="Vector_58" d="M41.6624 88.0626C41.5798 88.0624 41.4988 88.0401 41.4277 87.9981C41.356 87.9563 41.2965 87.8964 41.2553 87.8244C41.2142 87.7524 41.1927 87.6708 41.193 87.5878V77.0009C41.1923 76.9178 41.2136 76.8361 41.2549 76.764C41.2961 76.6919 41.3557 76.6321 41.4277 76.5906L44.6964 74.7149C44.7679 74.6744 44.8488 74.6531 44.931 74.6531C45.0133 74.6531 45.0941 74.6744 45.1657 74.7149C45.2377 74.7564 45.2973 74.8163 45.3385 74.8884C45.3797 74.9605 45.4011 75.0422 45.4003 75.1252V85.7139C45.4011 85.7969 45.3797 85.8787 45.3385 85.9508C45.2973 86.0228 45.2377 86.0827 45.1657 86.1242L41.897 87.9999C41.8256 88.0408 41.7447 88.0628 41.6624 88.0626ZM42.1317 77.2776V86.7772L44.4559 85.4437V75.9441L42.1317 77.2776Z" fill="black"/>
</g>
<g id="Group_26">
<path id="Vector_59" d="M41.6606 77.0024H35.5168V87.5911H41.6606V77.0024Z" fill="#3996D1"/>
<path id="Vector_60" d="M41.6623 88.0625H35.5186C35.3941 88.0625 35.2748 88.0131 35.1867 87.9251C35.0987 87.8372 35.0493 87.7179 35.0493 87.5936V77.0031C35.0493 76.8787 35.0987 76.7595 35.1867 76.6715C35.2748 76.5836 35.3941 76.5342 35.5186 76.5342H41.6623C41.7868 76.5342 41.9062 76.5836 41.9942 76.6715C42.0822 76.7595 42.1316 76.8787 42.1316 77.0031V87.5918C42.1319 87.6535 42.1199 87.7147 42.0964 87.7718C42.0729 87.8288 42.0384 87.8808 41.9948 87.9245C41.9512 87.9682 41.8994 88.0029 41.8423 88.0266C41.7853 88.0503 41.7241 88.0625 41.6623 88.0625ZM35.9896 87.1188H41.1883V77.4738H35.9873L35.9896 87.1188Z" fill="black"/>
</g>
<path id="Vector_61" d="M40.6592 78.0396H36.52V86.5539H40.6592V78.0396Z" fill="white"/>
<path id="Vector_62" d="M44.1684 85.1161L42.601 85.9555V77.9036L44.0487 77.1868L44.1684 85.1161Z" fill="white"/>
<g id="Group_27">
<path id="Vector_63" d="M43.1694 73.4612H37.3665L35.5174 77.0032H41.6641L43.1694 73.4612Z" fill="#3996D1"/>
<path id="Vector_64" d="M41.6629 77.4763H35.5192C35.438 77.4762 35.3581 77.4553 35.2874 77.4154C35.2167 77.3755 35.1574 77.3181 35.1154 77.2487C35.0733 77.1793 35.0499 77.1002 35.0474 77.0192C35.0448 76.9381 35.0633 76.8577 35.1009 76.7858L36.95 73.2437C36.99 73.1674 37.0501 73.1035 37.1238 73.0589C37.1975 73.0143 37.282 72.9906 37.3682 72.9905H43.1711C43.2494 72.9899 43.3265 73.0089 43.3955 73.0457C43.4645 73.0825 43.5232 73.1359 43.5663 73.2012C43.6093 73.2664 43.6354 73.3413 43.6421 73.4192C43.6488 73.497 43.636 73.5753 43.6047 73.647L42.0959 77.1891C42.0599 77.2746 41.9993 77.3475 41.9218 77.3987C41.8444 77.4498 41.7534 77.4768 41.6606 77.4763H41.6629ZM36.297 76.5326H41.3508L42.4578 73.9342H37.6539L36.297 76.5326Z" fill="black"/>
</g>
<path id="Vector_65" d="M41.5779 74.3643H38.1901L37.1095 76.0986H40.6979L41.5779 74.3643Z" fill="white"/>
<g id="Group_28">
<path id="Vector_66" d="M43.1688 73.4612L44.9287 75.1294L41.66 77.005L43.1688 73.4612Z" fill="#3996D1"/>
<path id="Vector_67" d="M41.6624 77.4762C41.5843 77.4764 41.5074 77.4571 41.4385 77.4203C41.3697 77.3834 41.3111 77.3301 41.268 77.265C41.2248 77.2 41.1985 77.1252 41.1914 77.0475C41.1843 76.9698 41.1965 76.8916 41.2271 76.8198L42.7359 73.2777C42.766 73.2077 42.8125 73.1458 42.8715 73.0975C42.9305 73.0491 43.0003 73.0157 43.075 72.9999C43.1492 72.984 43.2263 72.9864 43.2994 73.0068C43.3726 73.0272 43.4397 73.0651 43.495 73.1171L45.2549 74.7853C45.3082 74.8361 45.3489 74.8986 45.3739 74.9679C45.3988 75.0372 45.4073 75.1113 45.3986 75.1844C45.3898 75.2573 45.3639 75.3271 45.3232 75.3882C45.2824 75.4493 45.2279 75.4999 45.1639 75.5361L41.8952 77.4118C41.8237 77.4523 41.7428 77.4737 41.6606 77.4739L41.6624 77.4762ZM43.3395 74.2706L42.6485 75.8954L44.1473 75.0367L43.3395 74.2706Z" fill="black"/>
</g>
<g id="Group_29">
<path id="Vector_68" d="M43.1717 71.8491H37.3571V73.4604H43.1717V71.8491Z" fill="white"/>
<path id="Vector_69" d="M43.1694 73.9312H37.3547C37.2303 73.9312 37.1109 73.8818 37.0229 73.7939C36.9349 73.7059 36.8854 73.5867 36.8854 73.4623V71.851C36.8854 71.7266 36.9349 71.6074 37.0229 71.5194C37.1109 71.4315 37.2303 71.3821 37.3547 71.3821H43.1694C43.2939 71.3821 43.4132 71.4315 43.5012 71.5194C43.5893 71.6074 43.6387 71.7266 43.6387 71.851V73.4623C43.6387 73.5867 43.5893 73.7059 43.5012 73.7939C43.4132 73.8818 43.2939 73.9312 43.1694 73.9312ZM37.8281 72.9875H42.6972V72.3199H37.8281V72.9875Z" fill="black"/>
</g>
</g>
<g id="Group_30">
<path id="Vector_70" d="M35.0798 79.9855L33.7206 81.894L30.2595 79.4351C30.0735 79.5827 29.8444 79.6656 29.607 79.6711C29.3695 79.6766 29.1368 79.6044 28.9442 79.4656C29.6244 78.5852 29.9348 77.4747 29.8095 76.3696C29.9751 76.1486 30.2183 75.9985 30.4902 75.9493C30.762 75.9002 31.0425 75.9557 31.275 76.1047C31.5076 76.2537 31.6751 76.4852 31.7439 76.7526C31.8126 77.0199 31.7776 77.3034 31.6457 77.546L35.0798 79.9855Z" fill="white"/>
<path id="Vector_71" d="M33.7212 82.3646C33.6234 82.3647 33.528 82.3344 33.4484 82.2778L30.2419 79.9989C29.9903 80.1141 29.7127 80.1609 29.4372 80.1347C29.1616 80.1084 28.8979 80.01 28.6726 79.8494C28.3357 79.6128 28.1064 79.2524 28.035 78.8471C28.7662 78.0912 29.2519 77.1322 29.4282 76.0957C29.6419 75.8066 29.9487 75.5997 30.2969 75.5098C30.6452 75.4198 31.0139 75.4523 31.341 75.6018C31.6682 75.7513 31.9339 76.0087 32.0936 76.3308C32.2533 76.6528 32.2973 77.02 32.2182 77.3706L35.3543 79.598C35.4048 79.634 35.4477 79.6796 35.4805 79.7322C35.5133 79.7847 35.5354 79.8433 35.5456 79.9044C35.5558 79.9655 35.5538 80.028 35.5398 80.0884C35.5258 80.1487 35.5001 80.2058 35.464 80.2562L34.1048 82.1641C34.0615 82.2256 34.004 82.2759 33.9373 82.3108C33.8706 82.3457 33.7965 82.3641 33.7212 82.3646ZM30.263 78.9649C30.3613 78.9646 30.4573 78.9949 30.5375 79.0517L33.6115 81.238L34.4234 80.0997L31.3758 77.9309C31.2799 77.8635 31.2127 77.7626 31.1875 77.6482C31.1624 77.5337 31.181 77.414 31.2397 77.3126C31.3128 77.1751 31.3315 77.0152 31.2922 76.8646C31.2528 76.7139 31.1583 76.5836 31.0272 76.4994C30.8962 76.4151 30.7383 76.3832 30.5848 76.4098C30.4313 76.4365 30.2934 76.5198 30.1985 76.6432C30.1316 76.7394 30.0947 76.8532 30.0923 76.9703C30.0899 77.0874 30.1221 77.2026 30.185 77.3014C30.2338 77.3805 30.2582 77.4722 30.2551 77.565C30.2521 77.6578 30.2217 77.7478 30.1678 77.8234C30.1139 77.8991 30.0389 77.9572 29.9521 77.9906C29.8653 78.0239 29.7706 78.0309 29.6799 78.0107C29.5659 77.9835 29.4465 77.9907 29.3366 78.0314C29.2267 78.0721 29.1314 78.1444 29.0628 78.2393C29.0178 78.3028 28.9861 78.3747 28.9694 78.4507C28.9528 78.5267 28.9516 78.6053 28.966 78.6818C28.9956 78.8441 29.0881 78.9882 29.2235 79.0827C29.3319 79.1617 29.4631 79.2033 29.5973 79.2013C29.7314 79.1993 29.8613 79.1538 29.9673 79.0716C30.0513 79.0032 30.1564 78.9657 30.2647 78.9655L30.263 78.9649Z" fill="black"/>
<g id="Group_31">
<path id="Vector_72" d="M39.2214 91.7104C39.2214 91.7104 31.7829 85.6661 31.8621 81.8591C31.9064 81.2754 32.0949 80.7117 32.4108 80.2187C32.7266 79.7256 33.1599 79.3185 33.6719 79.0339C37.2943 77.1694 46.8452 81.0004 46.8452 81.0004L39.219 91.7104H39.2214Z" fill="#9C3202"/>
<g id="Group_32" opacity="0.4">
<path id="Vector_73" d="M46.8358 80.8019L45.757 82.3188C43.766 81.5738 36.2026 78.9262 33.07 80.5393C32.5777 80.8066 32.159 81.1912 31.851 81.6588C31.8959 81.0755 32.0847 80.5124 32.4005 80.0197C32.7163 79.527 33.1493 79.1201 33.6608 78.8354C37.2849 76.9703 46.8358 80.8019 46.8358 80.8019Z" fill="white"/>
</g>
<path id="Vector_74" d="M39.2196 92.183C39.1112 92.183 39.0061 92.1455 38.9222 92.0769C37.5981 90.9754 36.3442 89.7925 35.1678 88.5348C32.6259 85.8057 31.3547 83.5526 31.3917 81.8493C31.4383 81.1805 31.6516 80.5341 32.0123 79.9689C32.373 79.4036 32.8695 78.9376 33.4566 78.6132C37.2286 76.6707 46.6246 80.4021 47.0235 80.5609C47.0897 80.5873 47.1489 80.6284 47.1968 80.6811C47.2447 80.7339 47.2799 80.7968 47.2998 80.8651C47.3195 80.9337 47.3237 81.0058 47.3119 81.0762C47.3001 81.1466 47.2727 81.2135 47.2318 81.2719L39.6056 91.9819C39.568 92.0344 39.5201 92.0787 39.4649 92.1121C39.4096 92.1456 39.3481 92.1675 39.2841 92.1765C39.2628 92.1796 39.2412 92.1808 39.2196 92.18V92.183ZM36.3633 78.9947C35.5135 78.9545 34.666 79.1124 33.8878 79.456C33.4498 79.7002 33.0789 80.0486 32.8079 80.4702C32.5368 80.8918 32.374 81.3738 32.3338 81.8733C32.2751 84.6346 36.903 89.1414 39.1305 91.0265L46.1072 81.2285C44.5942 80.6662 43.0535 80.1814 41.4911 79.7761C39.8195 79.3107 38.0978 79.0491 36.3633 78.9971V78.9947Z" fill="black"/>
</g>
<g id="Group_33">
<path id="Vector_75" d="M45.5748 88.1642C47.6816 85.2061 48.3392 82.0613 47.0436 81.1399C45.7479 80.2186 42.9896 81.8697 40.8827 84.8278C38.7758 87.7859 38.1182 90.9307 39.4139 91.852C40.7096 92.7734 43.4679 91.1223 45.5748 88.1642Z" fill="#9B0404"/>
<path id="Vector_76" d="M40.2814 92.5771C39.8743 92.5862 39.4747 92.4664 39.1399 92.2348C38.3508 91.675 38.0915 90.5267 38.4095 89.0063C39.258 85.7851 41.2524 82.9833 44.0194 81.1256C45.354 80.3273 46.5214 80.1954 47.311 80.7569C48.1006 81.3185 48.3593 82.4649 48.0413 83.9854C47.1929 87.2066 45.1984 90.0084 42.4314 91.8661C41.7907 92.2898 41.0486 92.5352 40.2814 92.5771ZM46.1659 81.3566C45.5725 81.403 45.0014 81.6024 44.5081 81.9351C43.2277 82.7639 42.1259 83.84 41.2675 85.1002C39.1815 88.0309 38.7615 90.8057 39.6889 91.464C39.8669 91.5804 40.0765 91.6391 40.289 91.6322C41.4512 91.6322 43.4568 90.3181 45.1891 87.8879C46.0997 86.6639 46.7567 85.2706 47.1215 83.7896C47.3562 82.676 47.2253 81.8495 46.7695 81.5242C46.5922 81.4064 46.3822 81.3475 46.1694 81.3559L46.1659 81.3566Z" fill="black"/>
</g>
<path id="Vector_77" d="M43.8437 87.5474C44.3238 86.8733 44.4298 86.1255 44.0805 85.8771C43.7311 85.6287 43.0587 85.9738 42.5786 86.6479C42.0985 87.322 41.9925 88.0698 42.3418 88.3182C42.6911 88.5666 43.3635 88.2215 43.8437 87.5474Z" fill="white"/>
</g>
<g id="Group_34">
<g id="Group_35">
<path id="Vector_78" d="M39.2138 86.287C39.3259 87.7974 38.837 89.2911 37.8533 90.4435C36.8696 91.5959 35.4706 92.314 33.9602 92.4418C32.4497 92.5695 30.9498 92.0967 29.7862 91.1259C28.6227 90.1551 27.8894 88.7649 27.7458 87.2571C27.4976 84.4295 29.4928 82.2057 32.1455 82.6916C32.8459 82.8161 33.5644 82.7974 34.2574 82.6365C34.8292 82.4719 35.4313 82.4408 36.0171 82.5457C36.6029 82.6506 37.1567 82.8887 37.6358 83.2415C38.1148 83.5943 38.5063 84.0525 38.7799 84.5805C39.0535 85.1086 39.202 85.6925 39.2138 86.287Z" fill="#D81B05"/>
<g id="Group_36" opacity="0.4">
<path id="Vector_79" d="M39.1164 87.9144C39.1164 87.7461 39.1105 87.5779 39.0976 87.4074C38.8706 84.6384 36.6578 83.1959 34.1441 83.7574C33.4509 83.9164 32.7328 83.9352 32.0323 83.8125C29.8899 83.421 28.1787 84.792 27.7264 86.8194C27.7076 84.2041 29.6306 82.2311 32.1496 82.6912C32.85 82.8158 33.5685 82.797 34.2615 82.6361C34.8331 82.4721 35.4348 82.4414 36.0202 82.5465C36.6056 82.6517 37.1589 82.8897 37.6376 83.2424C38.1163 83.5951 38.5075 84.053 38.7809 84.5808C39.0544 85.1085 39.2029 85.6919 39.2149 86.2861C39.2597 86.8313 39.2265 87.3802 39.1164 87.9161V87.9144Z" fill="white"/>
</g>
<path id="Vector_80" d="M33.4765 92.9774C31.9206 92.9728 30.4225 92.388 29.2755 91.3375C28.1286 90.2871 27.4155 88.8466 27.2759 87.2982C27.1852 86.5459 27.2705 85.7829 27.525 85.0691C27.7794 84.3553 28.1962 83.7102 28.7425 83.1847C29.2082 82.7619 29.7671 82.4548 30.3738 82.2882C30.9806 82.1216 31.6181 82.1002 32.2346 82.2257C32.8725 82.3389 33.5267 82.3215 34.1576 82.1748C34.7952 81.9956 35.4653 81.9643 36.1168 82.0832C36.7684 82.2021 37.3841 82.468 37.9172 82.8607C38.4503 83.2535 38.8865 83.7627 39.1927 84.3495C39.499 84.9362 39.6671 85.5851 39.6842 86.2467C39.8171 87.8907 39.2919 89.5202 38.2238 90.7778C37.1557 92.0353 35.632 92.8181 33.9869 92.9545C33.8144 92.968 33.6443 92.975 33.476 92.975L33.4765 92.9774ZM31.4321 83.0961C30.6729 83.09 29.9394 83.371 29.3789 83.8828C28.9412 84.311 28.6087 84.8347 28.4074 85.4128C28.2061 85.9909 28.1415 86.6078 28.2186 87.215C28.2771 87.9056 28.4712 88.5778 28.7898 89.1934C29.1084 89.8091 29.5452 90.3559 30.0753 90.8029C30.6054 91.2498 31.2185 91.5881 31.8794 91.7983C32.5403 92.0085 33.2362 92.0866 33.9274 92.0281C34.6185 91.9696 35.2913 91.7757 35.9075 91.4573C36.5236 91.139 37.0709 90.7026 37.5182 90.1729C37.9655 89.6432 38.3041 89.0307 38.5145 88.3703C38.7249 87.7099 38.803 87.0146 38.7445 86.3241C38.7257 85.8004 38.5923 85.2872 38.3536 84.8207C38.1149 84.3542 37.7767 83.9456 37.363 83.6237C36.9314 83.3246 36.4401 83.1226 35.9229 83.0315C35.4057 82.9404 34.8749 82.9625 34.367 83.0961C33.6123 83.2701 32.8301 83.29 32.0675 83.1548C31.8579 83.1157 31.6453 83.0961 31.4321 83.0961Z" fill="black"/>
</g>
<path id="Vector_81" d="M33.6431 82.9543L32.1443 83.5405C31.6374 83.7389 31.0963 83.8355 30.552 83.8248C30.0077 83.8142 29.4708 83.6964 28.9721 83.4783C28.4734 83.2602 28.0226 82.9459 27.6455 82.5536C27.2683 82.1613 26.9723 81.6985 26.7743 81.1918L28.2732 80.6057C28.7801 80.4073 29.3211 80.3107 29.8655 80.3214C30.4098 80.332 30.9466 80.4498 31.4453 80.6679C31.9441 80.8861 32.3949 81.2003 32.772 81.5926C33.1491 81.9849 33.4451 82.4476 33.6431 82.9543Z" fill="#306112"/>
<g id="Group_37" opacity="0.4">
<path id="Vector_82" d="M33.6431 82.9542L33.4707 83.0222C32.9186 82.3307 32.1595 81.8339 31.3045 81.6045C30.4495 81.3751 29.5435 81.4251 28.719 81.7473L27.392 82.2655C27.1327 81.9405 26.9241 81.5783 26.7731 81.1911L28.272 80.6049C28.7789 80.4065 29.32 80.3099 29.8643 80.3206C30.4086 80.3313 30.9454 80.4491 31.4442 80.6672C31.9429 80.8853 32.3937 81.1995 32.7708 81.5918C33.1479 81.9842 33.444 82.4469 33.642 82.9536L33.6431 82.9542Z" fill="white"/>
</g>
<path id="Vector_83" d="M30.632 84.2989C29.7035 84.2968 28.7972 84.0158 28.0307 83.4923C27.2641 82.9688 26.6729 82.2271 26.3338 81.3635C26.3109 81.3058 26.2997 81.2442 26.3008 81.1821C26.302 81.1201 26.3154 81.0588 26.3404 81.002C26.3654 80.9452 26.4014 80.894 26.4464 80.8512C26.4914 80.8084 26.5444 80.7749 26.6024 80.7528L28.1013 80.1666C29.2419 79.7207 30.513 79.7457 31.6351 80.2362C32.7572 80.7267 33.6384 81.6424 34.0849 82.782C34.1078 82.8395 34.1191 82.9011 34.1181 82.9631C34.117 83.025 34.1037 83.0862 34.0789 83.143C34.0541 83.1998 34.0182 83.2511 33.9735 83.2939C33.9287 83.3368 33.8758 83.3704 33.818 83.3927L32.3191 83.9789C31.7832 84.1896 31.2126 84.298 30.6367 84.2983L30.632 84.2989ZM27.4126 81.4491C27.8427 82.2302 28.5426 82.8283 29.3816 83.1317C30.2207 83.4351 31.1416 83.4231 31.9724 83.0979L33.0037 82.6952C32.574 81.9136 31.8742 81.3151 31.0352 81.0112C30.1961 80.7074 29.275 80.7191 28.4439 81.0441L27.4126 81.4491Z" fill="black"/>
</g>
<g id="Group_38">
<path id="Vector_84" d="M46.1418 89.2524L47.5404 82.425C49.4398 82.2862 51.3488 82.3637 53.2306 82.6559C56.863 83.3423 58.1102 85.2936 58.1102 85.2936L46.1395 89.2524H46.1418Z" fill="#FFBA40"/>
<path id="Vector_85" opacity="0.4" d="M58.1114 85.2919L57.0344 85.6495C55.7946 84.7841 54.3773 84.2058 52.8857 83.9567C51.0354 83.6581 49.1585 83.5579 47.2869 83.6578L47.5404 82.4269C49.4397 82.2881 51.3487 82.365 53.2307 82.656C56.8631 83.3424 58.1102 85.2937 58.1102 85.2937L58.1114 85.2919Z" fill="white"/>
<path id="Vector_86" d="M46.1413 89.7225C46.0257 89.7226 45.914 89.681 45.8268 89.6053C45.7648 89.5507 45.7182 89.4807 45.692 89.4024C45.6657 89.324 45.6606 89.2402 45.6772 89.1592L47.0757 82.3318C47.0961 82.2317 47.1485 82.1409 47.225 82.073C47.3015 82.0051 47.3979 81.9639 47.4999 81.9556C49.4418 81.8095 51.3942 81.8881 53.3181 82.19C57.1053 82.9068 58.4528 84.9513 58.508 85.0363C58.5475 85.0968 58.5726 85.1656 58.5812 85.2373C58.5898 85.309 58.5817 85.3818 58.5575 85.4499C58.5333 85.518 58.4937 85.5796 58.4417 85.6298C58.3898 85.6801 58.3269 85.7177 58.258 85.7397L46.2897 89.6962C46.2419 89.7117 46.1921 89.72 46.1418 89.7208L46.1413 89.7225ZM47.9299 82.8729L46.766 88.5485L57.2878 85.0685C56.1254 84.0295 54.6848 83.352 53.1427 83.119C51.4186 82.848 49.67 82.7657 47.9281 82.8734L47.9299 82.8729Z" fill="black"/>
<g id="Group_39">
<path id="Vector_87" d="M58.1114 97.1055L46.1442 101.064V89.2517L58.1114 85.2917V97.1055Z" fill="#EBA718"/>
<path id="Vector_88" d="M46.1418 101.537C46.0174 101.537 45.898 101.487 45.81 101.399C45.722 101.312 45.6725 101.192 45.6725 101.068V89.2536C45.6724 89.1543 45.7037 89.0575 45.7618 88.977C45.82 88.8965 45.902 88.8364 45.9964 88.8052L57.9683 84.847C58.0392 84.8232 58.1147 84.8166 58.1887 84.8279C58.2626 84.8392 58.3328 84.8679 58.3933 84.9118C58.4539 84.9557 58.5031 85.0134 58.5368 85.0801C58.5705 85.1468 58.5878 85.2206 58.5872 85.2954V97.1079C58.5873 97.2072 58.556 97.3039 58.4979 97.3845C58.4397 97.465 58.3577 97.5251 58.2633 97.5563L46.2914 101.515C46.2436 101.53 46.1938 101.538 46.1436 101.539L46.1418 101.537ZM46.6111 89.5918V100.413L57.6397 96.7668V85.946L46.6111 89.5918Z" fill="black"/>
</g>
<path id="Vector_89" d="M54.6796 92.066C55.4698 92.066 56.1104 91.3582 56.1104 90.4851C56.1104 89.6121 55.4698 88.9043 54.6796 88.9043C53.8894 88.9043 53.2488 89.6121 53.2488 90.4851C53.2488 91.3582 53.8894 92.066 54.6796 92.066Z" fill="#9C5817"/>
<path id="Vector_90" d="M50.0834 97.4995C50.6759 97.4995 51.1563 96.9686 51.1563 96.3137C51.1563 95.6588 50.6759 95.1279 50.0834 95.1279C49.4908 95.1279 49.0104 95.6588 49.0104 96.3137C49.0104 96.9686 49.4908 97.4995 50.0834 97.4995Z" fill="#9C5817"/>
<path id="Vector_91" d="M53.1004 85.5884C53.693 85.5884 54.1734 85.2964 54.1734 84.9361C54.1734 84.5758 53.693 84.2837 53.1004 84.2837C52.5078 84.2837 52.0275 84.5758 52.0275 84.9361C52.0275 85.2964 52.5078 85.5884 53.1004 85.5884Z" fill="#9C5817"/>
<path id="Vector_92" d="M49.268 86.3715C49.7769 86.3715 50.1896 86.1209 50.1896 85.8117C50.1896 85.5026 49.7769 85.252 49.268 85.252C48.759 85.252 48.3464 85.5026 48.3464 85.8117C48.3464 86.1209 48.759 86.3715 49.268 86.3715Z" fill="#9C5817"/>
</g>
<g id="Group_40">
<path id="Vector_93" d="M59.2805 87.9868H26.6153V108.599H59.2805V87.9868Z" fill="#B18964"/>
<g id="Group_41" opacity="0.4">
<path id="Vector_94" d="M59.2805 87.9868H26.6153V89.2787H59.2805V87.9868Z" fill="white"/>
</g>
<g id="Group_42" opacity="0.35">
<path id="Vector_95" d="M59.2805 86.8198H26.6153V88.1117H59.2805V86.8198Z" fill="#0D1338"/>
</g>
<g id="Group_43" opacity="0.35">
<path id="Vector_96" d="M59.2805 106.645H26.6153V108.599H59.2805V106.645Z" fill="#0D1338"/>
</g>
<path id="Vector_97" d="M59.2805 109.069H26.6147C26.4903 109.069 26.3709 109.02 26.2829 108.932C26.1949 108.844 26.1454 108.725 26.1454 108.6V87.988C26.1454 87.8636 26.1949 87.7443 26.2829 87.6564C26.3709 87.5684 26.4903 87.519 26.6147 87.519H59.2799C59.4044 87.519 59.5238 87.5684 59.6118 87.6564C59.6998 87.7443 59.7493 87.8636 59.7493 87.988V108.6C59.7493 108.725 59.6999 108.844 59.612 108.932C59.5241 109.02 59.4049 109.069 59.2805 109.069ZM27.087 108.126H58.8077V88.4575H27.087V108.126Z" fill="black"/>
</g>
</g>
<g id="Group_44">
<path id="Vector_98" d="M73.7791 89.6039V89.6151C72.9265 93.261 70.7303 96.4522 67.6282 98.5526C67.5485 98.6054 67.4693 98.6587 67.3877 98.7114L67.3402 98.7419C67.2681 98.7894 67.1947 98.8345 67.1208 98.8779L67.0469 98.9236C66.9847 98.9617 66.9219 98.9992 66.8598 99.035C66.8293 99.0538 66.8011 99.0707 66.7688 99.0877C66.7102 99.1235 66.6474 99.1575 66.5852 99.1938C66.5571 99.2091 66.5266 99.2261 66.5002 99.2413C66.4304 99.2812 66.3599 99.3187 66.2901 99.3586C66.2766 99.3644 66.2655 99.372 66.2544 99.3773C66.1863 99.4131 66.12 99.4494 66.0496 99.4834C66.0156 99.5021 65.9798 99.5191 65.9458 99.5361C65.8643 99.5778 65.781 99.6194 65.7 99.6592C65.6032 99.7067 65.507 99.7518 65.4067 99.7976C65.3064 99.8433 65.2172 99.8843 65.121 99.9259C65.1134 99.9294 65.1057 99.9318 65.0981 99.9353C65.0054 99.9769 64.911 100.017 64.816 100.056C64.8093 100.059 64.8022 100.062 64.7948 100.064C64.7022 100.104 64.6095 100.141 64.5144 100.177C64.5109 100.177 64.5068 100.181 64.5033 100.181L64.1947 100.298C64.0909 100.338 63.9882 100.376 63.8826 100.412C63.7771 100.448 63.6726 100.486 63.5665 100.52C63.3547 100.592 63.1405 100.658 62.9211 100.722C60.6672 101.358 58.3337 101.667 55.9919 101.641H55.2346C53.5805 101.714 51.9273 101.479 50.3591 100.949C49.7864 100.724 49.2655 100.385 48.828 99.9523C48.5778 99.6975 48.3643 99.4091 48.1939 99.0954C47.7721 98.2639 47.5744 97.3371 47.6201 96.4061C47.7093 93.5539 49.6323 91.911 52.8998 91.8928C53.8141 91.8229 54.6671 91.7238 55.4586 91.5957C55.4757 91.5957 55.4927 91.5898 55.5079 91.588C60.3969 90.7938 62.9258 88.9158 63.0297 85.9904C63.0335 85.4977 62.9269 85.0104 62.7176 84.5643C62.6701 84.4886 62.6284 84.4054 62.5833 84.3163C62.5289 84.1848 62.4528 84.0633 62.358 83.957L62.2465 83.872L62.2354 83.7337C62.2354 83.7091 62.2143 83.681 62.2277 83.6599C63.2197 82.1599 63.8158 78.4432 64.1566 76.0951C64.8136 75.8096 65.4607 75.4861 66.0925 75.1666C66.0925 75.1532 66.6832 74.8794 66.7964 74.8149C68.7172 75.6889 70.3488 77.0919 71.5 78.8593C73.5861 81.9876 74.5018 86.3075 73.7791 89.6039Z" fill="white"/>
<g id="Group_45">
<path id="Vector_99" d="M48.0865 99.0976C48.2563 99.4117 48.4698 99.7002 48.7206 99.9545C49.1584 100.386 49.6793 100.725 50.2517 100.951C51.8199 101.482 53.4731 101.716 55.1272 101.643H55.8259C57.8362 96.9452 56.6378 93.5356 55.3982 91.5879C55.3812 91.5879 55.366 91.5937 55.3489 91.5955C54.5578 91.7221 53.7048 91.8211 52.7901 91.8926C49.5249 91.9114 47.6037 93.5532 47.5104 96.406C47.4645 97.337 47.6622 98.2639 48.0841 99.0952L48.0865 99.0976Z" fill="black"/>
<path id="Vector_100" opacity="0.4" d="M56.3673 93.0321C55.4702 93.1361 54.5067 93.2168 53.477 93.2742C50.4148 93.2877 48.3628 94.1933 47.623 95.8081V95.6909C47.7122 93.2643 49.6352 91.8651 52.9027 91.8498C53.8171 91.7893 54.67 91.7055 55.4616 91.5984C55.4786 91.5984 55.4956 91.5926 55.5108 91.5908C55.8475 92.039 56.1347 92.5223 56.3673 93.0321Z" fill="white"/>
<path id="Vector_101" d="M55.4493 102.065H55.1196C53.4122 102.135 51.7066 101.89 50.0887 101.34C49.464 101.092 48.8961 100.72 48.4191 100.247C48.141 99.9651 47.904 99.6455 47.7152 99.2975C47.2591 98.4022 47.0438 97.4038 47.0904 96.4002V96.3943C47.0829 95.7116 47.2212 95.0351 47.496 94.4099C47.7709 93.7848 48.176 93.2254 48.6843 92.769C49.8474 91.8639 51.2964 91.405 52.7689 91.4754C53.6624 91.4057 54.5065 91.309 55.2786 91.1824L55.6024 91.1313L55.7502 91.3623C57.0959 93.4724 58.2674 96.9981 56.2101 101.807L56.1022 102.061H55.7995C55.6822 102.061 55.5648 102.061 55.4475 102.061L55.4493 102.065ZM48.4555 98.8995C48.6073 99.1783 48.797 99.4347 49.0192 99.6615C49.4168 100.056 49.891 100.364 50.4125 100.568C51.9311 101.074 53.5296 101.298 55.129 101.228H55.5455C57.2432 97.0578 56.3368 93.973 55.1859 92.0481C54.4532 92.1594 53.6565 92.2485 52.82 92.313H52.7895C49.739 92.3318 48.0143 93.7883 47.931 96.416C47.8885 97.2737 48.0686 98.1277 48.4537 98.8954L48.4555 98.8995Z" fill="black"/>
<path id="Vector_102" opacity="0.49" d="M73.779 89.6032V89.6143C72.9268 93.2601 70.731 96.4512 67.6294 98.5518C67.5502 98.6046 67.4704 98.6579 67.3889 98.7107L67.3414 98.7411C67.2692 98.7886 67.1959 98.8337 67.122 98.8771L67.0481 98.9228C66.9853 98.9604 66.9231 98.9984 66.8609 99.0342C66.8304 99.053 66.8023 99.07 66.77 99.087C66.7113 99.1227 66.6485 99.1567 66.5864 99.193C66.5582 99.2083 66.5277 99.2253 66.5013 99.2405C66.4315 99.2804 66.3611 99.3179 66.2913 99.3578C66.2778 99.3636 66.2667 99.3707 66.2555 99.3765C66.1875 99.4123 66.1212 99.4486 66.0514 99.4826C66.0173 99.5014 65.9816 99.5184 65.9475 99.5354C65.866 99.577 65.7827 99.6186 65.7017 99.6584C65.6055 99.7059 65.5087 99.7511 65.4084 99.7968C65.3081 99.8425 65.2189 99.8835 65.1227 99.9252C65.1151 99.9287 65.1075 99.931 65.0998 99.9345C65.0072 99.9761 64.9127 100.016 64.8177 100.055C64.8112 100.059 64.8043 100.061 64.7972 100.063C64.7045 100.103 64.6118 100.14 64.5173 100.177C64.5138 100.177 64.5097 100.18 64.5062 100.18L64.1976 100.297C64.0938 100.337 63.9912 100.375 63.8856 100.411C63.78 100.447 63.6755 100.485 63.5694 100.519C63.3576 100.591 63.1435 100.657 62.9241 100.721C60.6701 101.357 58.3366 101.666 55.9948 101.64H55.2375C53.5835 101.713 51.9302 101.478 50.362 100.948C49.7893 100.723 49.2684 100.384 48.8309 99.9515C48.5807 99.6967 48.3673 99.4083 48.1968 99.0946C47.9106 98.5506 47.7314 97.9569 47.6688 97.3455C47.6876 97.3836 47.7069 97.4194 47.7275 97.4552C47.8973 97.7693 48.1108 98.0578 48.3616 98.3121C48.7994 98.7441 49.3203 99.0831 49.8927 99.3085C51.4609 99.8392 53.1141 100.074 54.7682 100.001H55.5255C57.8673 100.027 60.2008 99.7173 62.4548 99.0817C62.6724 99.0172 62.8865 98.951 63.1 98.8795L63.4162 98.7716C63.5224 98.7335 63.6245 98.696 63.7283 98.6579C63.8322 98.6198 63.9348 98.5805 64.0369 98.5407C64.0404 98.5407 64.0445 98.5372 64.048 98.5372L64.3279 98.4234C64.3337 98.4234 64.3414 98.4176 64.349 98.4158C64.4434 98.376 64.5361 98.3361 64.6312 98.2945C64.6388 98.291 64.6464 98.2887 64.654 98.2851C64.7508 98.2435 64.8453 98.2001 64.9397 98.1567C65.0342 98.1134 65.1345 98.0659 65.233 98.019C65.3163 97.9791 65.3979 97.9376 65.4788 97.8959L65.5826 97.8432C65.6507 97.8092 65.7188 97.7734 65.7868 97.7371L65.8226 97.7183C65.8924 97.6808 65.9628 97.6427 66.0326 97.6011C66.0608 97.5858 66.0913 97.5706 66.1177 97.5536C66.1804 97.5179 66.2409 97.4839 66.3013 97.4475C66.3318 97.4305 66.3599 97.4135 66.3922 97.3948C66.455 97.359 66.5172 97.3209 66.5793 97.2834L66.6532 97.2383L66.8727 97.1023C66.8897 97.0929 66.9049 97.0818 66.9202 97.0718C67.0017 97.0191 67.0809 96.9657 67.1607 96.913C70.2599 94.8113 72.4528 91.6199 73.3021 87.9749V87.9637C73.6717 86.0664 73.6212 84.1112 73.1543 82.2354C74.0158 84.5918 74.2309 87.1357 73.7773 89.6032H73.779Z" fill="#C5EFFF"/>
</g>
<path id="Vector_103" d="M74.3844 89.7738C72.306 98.2882 64.5613 102.403 55.8922 102.265C53.2916 102.14 49.7144 102.469 48.039 99.9675C47.3406 98.9784 46.9758 97.7926 46.9975 96.5824C47.0193 95.3721 47.4264 94.2002 48.1598 93.2368C49.2574 91.8259 50.8665 91.5422 52.9115 91.3529C56.7005 91.0012 61.1941 90.7023 62.3222 86.587C62.5373 85.7271 62.4709 84.8209 62.1327 84.0015C62.1125 83.9618 62.1028 83.9176 62.1045 83.8731C62.1056 83.8304 62.1174 83.7886 62.139 83.7516C62.1605 83.7146 62.191 83.6836 62.2277 83.6615C62.2387 83.654 62.2508 83.6483 62.2635 83.6445C62.3129 83.6314 62.3648 83.6306 62.4146 83.6422C62.4644 83.6537 62.5106 83.6773 62.5492 83.7108C63.0717 84.3606 63.352 85.1715 63.3423 86.0049C63.1663 90.8406 56.8841 91.9057 52.9115 92.2099C49.8077 92.2796 48.0261 93.5943 47.9375 96.4143C47.8559 101.205 52.1888 101.35 55.9913 101.331C65.2219 101.331 71.4929 97.1698 73.4687 89.5382C74.5968 84.3942 71.7088 75.6929 64.3853 74.3653C64.285 74.3465 64.1882 74.2838 64.092 74.2709C64.0504 74.2651 63.9219 74.1308 63.8233 74.1689C64.0034 74.0933 64.2815 74.101 64.4593 74.0212C64.7866 73.8776 65.1444 73.7545 65.4641 73.6016C65.4923 73.6092 65.5228 73.615 65.5475 73.6221C71.8977 75.3166 75.7964 83.6 74.3809 89.7727L74.3844 89.7738Z" fill="black"/>
</g>
<g id="Group_46">
<path id="Vector_104" d="M12.6131 89.4897V89.5008C13.4654 93.1469 15.6613 96.3383 18.7633 98.4389C18.8431 98.4917 18.9223 98.545 19.0038 98.5978L19.0513 98.6282C19.1235 98.6757 19.1968 98.7209 19.2707 98.7642L19.3447 98.8093C19.4068 98.8474 19.4696 98.885 19.5318 98.9207C19.5623 98.9395 19.5905 98.9565 19.6227 98.9735C19.6814 99.0092 19.7442 99.0432 19.8063 99.0795C19.8345 99.0948 19.865 99.1118 19.8914 99.127C19.9612 99.1669 20.0316 99.2044 20.1014 99.2443C20.1149 99.2501 20.126 99.2578 20.1372 99.263C20.2052 99.2988 20.2715 99.3351 20.3413 99.3691C20.3754 99.3879 20.4111 99.4049 20.4452 99.4219C20.5267 99.4635 20.61 99.5051 20.691 99.545C20.7878 99.5924 20.884 99.6376 20.9843 99.6833C21.0846 99.729 21.1738 99.77 21.27 99.8117C21.2776 99.8152 21.2852 99.8175 21.2929 99.821C21.3855 99.8626 21.48 99.9025 21.575 99.9418C21.5815 99.9451 21.5884 99.9477 21.5955 99.9494C21.6882 99.9893 21.7809 100.027 21.876 100.063C21.8795 100.063 21.8836 100.067 21.8871 100.067L22.1957 100.184C22.2995 100.224 22.4022 100.261 22.5078 100.298C22.6134 100.334 22.7178 100.371 22.824 100.405C23.0357 100.478 23.2498 100.544 23.4692 100.608C25.7232 101.243 28.0567 101.553 30.3985 101.527H31.1558C32.8099 101.6 34.4631 101.365 36.0313 100.834C36.604 100.609 37.1249 100.27 37.5624 99.838C37.8126 99.5832 38.0261 99.2948 38.1965 98.9811C38.6183 98.1497 38.816 97.2228 38.7703 96.2919C38.6811 93.4397 36.7581 91.7967 33.4906 91.7786C32.5762 91.7086 31.7233 91.6096 30.9317 91.4814C30.9147 91.4814 30.8977 91.4755 30.8825 91.4738C25.9935 90.6796 23.4645 88.8015 23.3607 85.8761C23.3568 85.3834 23.4635 84.8961 23.6728 84.45C23.7203 84.3744 23.762 84.2912 23.8071 84.2021C23.8615 84.0705 23.9376 83.949 24.0324 83.8428L24.1439 83.7578L24.155 83.6194C24.155 83.5948 24.1755 83.5667 24.1626 83.5456C23.1706 82.0457 22.5746 78.3289 22.2338 75.9808C21.5768 75.6954 20.9297 75.3718 20.2979 75.0524C20.2979 75.0389 19.7072 74.7652 19.594 74.7007C17.6732 75.5747 16.0416 76.9776 14.8904 78.7451C12.8043 81.8733 11.8886 86.1926 12.6113 89.4891L12.6131 89.4897Z" fill="white"/>
<g id="Group_47">
<path id="Vector_105" d="M38.3051 98.9816C38.1352 99.2957 37.9217 99.5843 37.6709 99.8386C37.2331 100.271 36.7123 100.609 36.1398 100.835C34.5716 101.366 32.9184 101.6 31.2644 101.527H30.5657C28.5553 96.8293 29.7538 93.4197 30.9933 91.4719C31.0103 91.4719 31.0256 91.4778 31.0426 91.4796C31.8338 91.6062 32.6867 91.705 33.6015 91.7762C36.8667 91.7949 38.7879 93.4367 38.8811 96.2894C38.9271 97.2204 38.7294 98.1473 38.3074 98.9787L38.3051 98.9816Z" fill="black"/>
<path id="Vector_106" opacity="0.4" d="M30.0242 92.917C30.9214 93.0209 31.8848 93.1016 32.9145 93.159C35.9767 93.1725 38.0288 94.0781 38.7691 95.6929V95.5757C38.6799 93.149 36.757 91.7499 33.4894 91.7347C32.5751 91.6741 31.7221 91.5903 30.9306 91.4832C30.9136 91.4832 30.8966 91.4773 30.8813 91.4756C30.5436 91.9242 30.2554 92.4081 30.0219 92.9187L30.0242 92.917Z" fill="white"/>
<path id="Vector_107" d="M30.9423 101.949H31.2696C32.977 102.02 34.6826 101.774 36.3006 101.225C36.9252 100.977 37.4932 100.605 37.9701 100.132C38.2483 99.8499 38.4853 99.5303 38.6741 99.1823C39.1302 98.2869 39.3455 97.2885 39.2988 96.285V96.2791C39.3064 95.5963 39.1681 94.9198 38.8932 94.2946C38.6184 93.6695 38.2133 93.1101 37.7049 92.6538C36.5419 91.7486 35.0928 91.2897 33.6202 91.3601C32.7268 91.2904 31.8827 91.1937 31.1107 91.0671L30.7868 91.0161L30.639 91.247C29.2933 93.3571 28.1218 96.8828 30.1791 101.692L30.287 101.945H30.5897C30.7071 101.945 30.8244 101.945 30.9417 101.945L30.9423 101.949ZM37.9361 98.7842C37.7843 99.063 37.5946 99.3195 37.3723 99.5462C36.9748 99.9403 36.5006 100.249 35.9791 100.452C34.4605 100.959 32.8619 101.182 31.2626 101.112H30.8461C29.1484 96.9426 30.0547 93.8577 31.2057 91.9328C31.9384 92.0442 32.735 92.1333 33.5716 92.1978H33.6021C36.6525 92.2165 38.3772 93.6731 38.4605 96.3008C38.5032 97.1584 38.3232 98.0126 37.9378 98.7802L37.9361 98.7842Z" fill="black"/>
<path id="Vector_108" opacity="0.49" d="M12.6114 89.4897V89.5008C13.4636 93.1466 15.6593 96.3377 18.761 98.4383C18.8408 98.4911 18.9199 98.5444 19.0015 98.5972L19.049 98.6277C19.1212 98.6751 19.1945 98.7203 19.2684 98.7636L19.3423 98.8088C19.4045 98.8469 19.4673 98.8844 19.5295 98.9202C19.56 98.9389 19.5881 98.9559 19.6204 98.9729C19.6791 99.0087 19.7418 99.0427 19.804 99.079C19.8322 99.0942 19.8627 99.1112 19.8891 99.1265C19.9589 99.1663 20.0293 99.2038 20.0991 99.2437C20.1126 99.2496 20.1237 99.2572 20.1349 99.2624C20.2029 99.2982 20.2692 99.3346 20.339 99.3686C20.373 99.3873 20.4088 99.4043 20.4428 99.4213C20.5244 99.4629 20.6077 99.5045 20.6886 99.5444C20.7854 99.5919 20.8816 99.637 20.982 99.6827C21.0823 99.7285 21.1714 99.7695 21.2676 99.8111C21.2753 99.8146 21.2829 99.817 21.2905 99.8205C21.3832 99.8621 21.4777 99.9019 21.5727 99.9418C21.5792 99.9451 21.5861 99.9477 21.5932 99.9494C21.6859 99.9893 21.7786 100.027 21.8736 100.063C21.8771 100.063 21.8813 100.067 21.8848 100.067L22.1933 100.184C22.2972 100.224 22.3998 100.262 22.5054 100.298C22.611 100.335 22.7154 100.372 22.8216 100.406C23.0334 100.478 23.2475 100.544 23.4669 100.608C25.7208 101.244 28.0543 101.553 30.3962 101.527H31.1535C32.8075 101.6 34.4607 101.366 36.029 100.835C36.6017 100.61 37.1226 100.271 37.5601 99.8386C37.8103 99.5839 38.0237 99.2954 38.1942 98.9817C38.4803 98.4377 38.6596 97.844 38.7222 97.2326C38.7034 97.2707 38.684 97.3065 38.6635 97.3422C38.4937 97.6564 38.2802 97.9449 38.0294 98.1992C37.5915 98.6312 37.0707 98.9701 36.4983 99.1956C34.9301 99.7262 33.2768 99.961 31.6228 99.8879H30.8655C28.5236 99.914 26.1901 99.6045 23.9362 98.9688C23.7186 98.9043 23.5044 98.8381 23.2909 98.7666L22.9747 98.6587C22.8685 98.6206 22.7665 98.5831 22.6626 98.545C22.5588 98.5069 22.4561 98.4676 22.3541 98.4278C22.3505 98.4278 22.3464 98.4243 22.3429 98.4243L22.0625 98.3106C22.0567 98.3106 22.049 98.3047 22.042 98.303C21.9475 98.2631 21.8549 98.2238 21.7598 98.1816C21.7522 98.1781 21.7446 98.1757 21.7369 98.1722C21.6401 98.1306 21.5457 98.0872 21.4513 98.0439C21.3568 98.0005 21.2565 97.953 21.1579 97.9061C21.0746 97.8663 20.9931 97.8246 20.9121 97.783L20.8083 97.7303C20.7403 97.6963 20.6722 97.6605 20.6042 97.6242L20.5684 97.6054C20.4986 97.5673 20.4282 97.5298 20.3584 97.4882C20.3302 97.473 20.2997 97.4577 20.2733 97.4407C20.2111 97.405 20.1501 97.371 20.0897 97.3346C20.0592 97.3176 20.031 97.3006 19.9988 97.2819C19.9366 97.2461 19.8738 97.208 19.8116 97.1705L19.7377 97.1254L19.5183 96.9894C19.5013 96.98 19.486 96.9689 19.4708 96.9589C19.3893 96.9062 19.3101 96.8528 19.2303 96.8001C16.1296 94.6993 13.9353 91.508 13.0848 87.8626V87.8514C12.7152 85.9541 12.7656 83.9989 13.2326 82.123C12.3711 84.4795 12.156 87.0234 12.6096 89.4909L12.6114 89.4897Z" fill="#C5EFFF"/>
</g>
<path id="Vector_109" d="M12.0054 89.6579C14.0838 98.1722 21.8284 102.287 30.4976 102.149C33.0982 102.024 36.6754 102.353 38.3508 99.8515C39.0491 98.8624 39.4138 97.6767 39.3921 96.4665C39.3704 95.2562 38.9633 94.0843 38.23 93.1209C37.1324 91.71 35.5233 91.4263 33.4783 91.237C29.6893 90.8853 25.1957 90.5864 24.0676 86.4711C23.8524 85.6112 23.9188 84.705 24.2571 83.8856C24.2773 83.8459 24.287 83.8017 24.2852 83.7572C24.2842 83.7144 24.2723 83.6726 24.2508 83.6356C24.2293 83.5987 24.1987 83.5677 24.1621 83.5456C24.1511 83.5381 24.139 83.5324 24.1263 83.5286C24.0769 83.5155 24.025 83.5147 23.9752 83.5263C23.9254 83.5378 23.8792 83.5614 23.8406 83.5949C23.3181 84.2446 23.0378 85.0556 23.0475 85.889C23.2235 90.7247 29.5056 91.7897 33.4783 92.0939C36.5821 92.1637 38.3637 93.4784 38.4523 96.2983C38.5338 101.089 34.201 101.234 30.3985 101.216C21.1673 101.216 14.8969 97.0539 12.9211 89.4223C11.793 84.2783 14.6945 75.5542 22.0173 74.2265C22.1177 74.2078 22.2145 74.1925 22.3107 74.179C22.3523 74.1732 22.4415 74.1527 22.4808 74.1486C22.3007 74.073 22.1077 73.9839 21.9299 73.9065C21.6026 73.7629 21.2448 73.6398 20.925 73.4868C20.8969 73.4944 20.8664 73.5003 20.8417 73.5073C14.4915 75.2019 10.5928 83.4852 12.0083 89.6579H12.0054Z" fill="black"/>
</g>
</g>
</g>
</g>
</g>
</g>
<defs>
<clipPath id="clip0_8_3">
<rect width="209" height="111" fill="white"/>
</clipPath>
</defs>
</svg>