<?xml version="1.0" encoding="UTF-8"?> <svg xmlns="http://www.w3.org/2000/svg" viewBox="5710.44091796875 4952.11865234375 225.99755859375 50.34521484375" data-guides="{&quot;vertical&quot;:[],&quot;horizontal&quot;:[]}"><mask x="5711.441" y="4953.119" width="49.000" height="49.000" style="mask-type:luminance" maskUnits="userSpaceOnUse" id="tSvg6970b0b229"><path fill="white" stroke="none" fill-opacity="1" stroke-width="1" stroke-opacity="1" font-size-adjust="none" data-svg-name="path" data-svg-id="11d2b8faa49" id="tSvg11d2b8faa49" title="Path 9" d="M 5748.014777966102 4953.118644067797 C 5739.747077966103 4953.118644067797 5731.479377966102 4953.118644067797 5723.211677966102 4953.118644067797C 5716.710727966102 4953.118644067797 5711.440677966102 4958.388694067797 5711.440677966102 4964.889644067796C 5711.440677966102 4973.157344067797 5711.440677966102 4981.425044067797 5711.440677966102 4989.692744067796C 5711.440677966102 4996.193644067796 5716.710727966102 5001.463744067796 5723.211677966102 5001.463744067796C 5731.479377966102 5001.463744067796 5739.747077966103 5001.463744067796 5748.014777966102 5001.463744067796C 5754.515677966102 5001.463744067796 5759.785777966103 4996.193644067796 5759.785777966103 4989.692744067796C 5759.785777966103 4981.425044067797 5759.785777966103 4973.157344067797 5759.785777966103 4964.889644067796C 5759.785777966103 4958.388694067797 5754.515677966102 4953.118644067797 5748.014777966102 4953.118644067797Z"></path></mask><path fill="#232324" stroke="none" fill-opacity="1" stroke-width="1" stroke-opacity="1" font-size-adjust="none" id="tSvg1849994d06e" title="Path 8" d="M 5794.818377966102 4979.272344067796 C 5794.818377966102 4979.745944067797 5794.806877966103 4980.112844067797 5794.782877966102 4980.373344067797C 5789.727877966102 4980.373344067797 5784.6728779661025 4980.373344067797 5779.617877966102 4980.373344067797C 5779.807477966102 4982.007044067796 5780.446777966102 4983.3092440677965 5781.535677966102 4984.279944067796C 5782.6251779661025 4985.250744067796 5784.010277966102 4985.736144067797 5785.690977966102 4985.736144067797C 5786.851477966102 4985.736144067797 5787.881377966102 4985.5111440677965 5788.7807779661025 4985.061344067796C 5789.704177966102 4984.587744067797 5790.402977966102 4983.972244067797 5790.876177966102 4983.214544067797C 5791.965311299436 4983.392110734463 5793.0544446327685 4983.56967740113 5794.143577966102 4983.747244067797C 5793.433277966102 4985.404644067797 5792.2852779661025 4986.683144067797 5790.698577966102 4987.582944067796C 5789.1359779661025 4988.482644067796 5787.395677966102 4988.9324440677965 5785.477877966102 4988.9324440677965C 5783.655077966102 4988.9324440677965 5782.021377966103 4988.529944067796 5780.576777966102 4987.724944067797C 5779.132677966102 4986.896244067797 5778.008177966102 4985.759744067796 5777.202877966102 4984.3155440677965C 5776.397977966102 4982.871244067796 5775.995377966102 4981.237544067797 5775.995377966102 4979.4144440677965C 5775.995377966102 4977.567644067796 5776.397977966102 4975.922044067796 5777.202877966102 4974.4778440677965C 5778.008177966102 4973.033544067796 5779.120677966102 4971.908844067797 5780.541277966102 4971.103844067797C 5781.961877966102 4970.275144067797 5783.584077966102 4969.860844067796 5785.406877966102 4969.860844067796C 5787.2065779661025 4969.860844067796 5788.8162779661025 4970.275144067797 5790.236877966102 4971.103844067797C 5791.681477966102 4971.908844067797 5792.805977966103 4973.033544067796 5793.610877966102 4974.4778440677965C 5794.416177966102 4975.898444067797 5794.818377966102 4977.496644067796 5794.818377966102 4979.272344067796ZM 5785.406877966102 4972.950644067797 C 5784.010277966102 4972.950644067797 5782.802777966102 4973.365044067797 5781.7843779661025 4974.193744067797C 5780.789877966102 4975.022444067797 5780.127077966102 4976.135144067796 5779.795477966102 4977.532144067796C 5783.536411299436 4977.532144067796 5787.277344632769 4977.532144067796 5791.018277966102 4977.532144067796C 5790.710577966102 4976.158844067797 5790.047777966102 4975.057944067797 5789.029377966102 4974.229244067797C 5788.034977966102 4973.376844067797 5786.827477966102 4972.950644067797 5785.406877966102 4972.950644067797ZM 5799.611577966102 4988.577344067797 C 5798.285677966102 4988.577344067797 5796.959777966103 4988.577344067797 5795.633877966102 4988.577344067797C 5797.634577966102 4985.44017740113 5799.635277966102 4982.303010734463 5801.6359779661025 4979.165844067797C 5799.872044632769 4976.1825774011295 5798.108111299435 4973.199310734463 5796.3441779661025 4970.216044067796C 5797.670077966102 4970.216044067796 5798.995977966102 4970.216044067796 5800.321877966102 4970.216044067796C 5801.576744632769 4972.39427740113 5802.831611299435 4974.572510734463 5804.086477966102 4976.750744067796C 5804.287744632768 4976.750744067796 5804.489011299435 4976.750744067796 5804.690277966102 4976.750744067796C 5805.992477966102 4974.572510734463 5807.294677966102 4972.39427740113 5808.5968779661025 4970.216044067796C 5809.8871446327685 4970.216044067796 5811.177411299435 4970.216044067796 5812.467677966102 4970.216044067796C 5810.7038779661025 4973.12827740113 5808.940077966102 4976.040510734463 5807.176277966102 4978.952744067797C 5809.153411299436 4982.160944067797 5811.130544632769 4985.369144067797 5813.1076779661025 4988.577344067797C 5811.757977966102 4988.577344067797 5810.408277966102 4988.577344067797 5809.058577966102 4988.577344067797C 5807.626144632769 4986.138644067797 5806.193711299436 4983.699944067796 5804.761277966102 4981.261244067797C 5804.560011299435 4981.261244067797 5804.358744632769 4981.261244067797 5804.157477966102 4981.261244067797C 5802.642177966102 4983.699944067796 5801.126877966102 4986.138644067797 5799.611577966102 4988.577344067797ZM 5823.633677966102 4988.9324440677965 C 5821.7636779661025 4988.9324440677965 5820.094677966103 4988.529944067796 5818.626677966102 4987.724944067797C 5817.158677966102 4986.919944067797 5816.010677966102 4985.795244067796 5815.181677966102 4984.3510440677965C 5814.352677966102 4982.906744067796 5813.938677966102 4981.261244067797 5813.938677966102 4979.4144440677965C 5813.938677966102 4977.567644067796 5814.352677966102 4975.922044067796 5815.181677966102 4974.4778440677965C 5816.010677966102 4973.033544067796 5817.158677966102 4971.908844067797 5818.626677966102 4971.103844067797C 5820.094677966103 4970.275144067797 5821.7636779661025 4969.860844067796 5823.633677966102 4969.860844067796C 5825.5046779661025 4969.860844067796 5827.173677966102 4970.275144067797 5828.641677966102 4971.103844067797C 5830.109677966102 4971.908844067797 5831.257677966102 4973.033544067796 5832.086677966102 4974.4778440677965C 5832.9156779661025 4975.922044067796 5833.329677966102 4977.567644067796 5833.329677966102 4979.4144440677965C 5833.329677966102 4981.261244067797 5832.9156779661025 4982.906744067796 5832.086677966102 4984.3510440677965C 5831.257677966102 4985.795244067796 5830.109677966102 4986.919944067797 5828.641677966102 4987.724944067797C 5827.173677966102 4988.529944067796 5825.5046779661025 4988.9324440677965 5823.633677966102 4988.9324440677965ZM 5823.633677966102 4985.736144067797 C 5825.433677966103 4985.736144067797 5826.889677966102 4985.156044067797 5828.002677966102 4983.9958440677965C 5829.1386779661025 4982.835744067796 5829.706677966102 4981.308544067797 5829.706677966102 4979.4144440677965C 5829.706677966102 4977.520244067797 5829.1386779661025 4975.9931440677965 5828.002677966102 4974.832944067796C 5826.889677966102 4973.649144067796 5825.433677966103 4973.057244067797 5823.633677966102 4973.057244067797C 5821.834677966102 4973.057244067797 5820.378677966102 4973.649144067796 5819.265677966102 4974.832944067796C 5818.152677966103 4975.9931440677965 5817.596677966102 4977.520244067797 5817.596677966102 4979.4144440677965C 5817.596677966102 4981.284844067796 5818.152677966103 4982.812044067797 5819.265677966102 4983.9958440677965C 5820.378677966102 4985.156044067797 5821.834677966102 4985.736144067797 5823.633677966102 4985.736144067797ZM 5844.981677966102 4988.9324440677965 C 5843.253677966102 4988.9324440677965 5841.702677966102 4988.529944067796 5840.329677966102 4987.724944067797C 5838.979677966102 4986.896244067797 5837.914677966102 4985.759744067796 5837.133677966102 4984.3155440677965C 5836.375677966103 4982.871244067796 5835.996677966102 4981.237544067797 5835.996677966102 4979.4144440677965C 5835.996677966102 4977.567644067796 5836.375677966103 4975.922044067796 5837.133677966102 4974.4778440677965C 5837.914677966102 4973.033544067796 5838.979677966102 4971.908844067797 5840.329677966102 4971.103844067797C 5841.702677966102 4970.275144067797 5843.253677966102 4969.860844067796 5844.981677966102 4969.860844067796C 5846.497677966102 4969.860844067796 5847.834677966102 4970.180444067797 5848.995677966102 4970.819744067797C 5850.155677966102 4971.435344067797 5851.102677966102 4972.204844067796 5851.836677966102 4973.128244067797C 5851.836677966102 4969.93187740113 5851.836677966102 4966.735510734463 5851.836677966102 4963.539144067797C 5852.996677966102 4963.539144067797 5854.1566779661025 4963.539144067797 5855.316677966102 4963.539144067797C 5855.316677966102 4971.885210734463 5855.316677966102 4980.23127740113 5855.316677966102 4988.577344067797C 5854.488011299435 4988.577344067797 5853.659344632769 4988.577344067797 5852.8306779661025 4988.577344067797C 5852.546677966102 4987.5592440677965 5852.262677966102 4986.541144067796 5851.978677966103 4985.523044067797C 5851.220677966102 4986.493744067797 5850.249677966102 4987.310644067797 5849.066677966102 4987.973544067797C 5847.905677966102 4988.612844067797 5846.544677966102 4988.9324440677965 5844.981677966102 4988.9324440677965ZM 5845.727677966102 4985.807144067797 C 5847.527677966102 4985.807144067797 5848.995677966102 4985.215244067796 5850.131677966102 4984.031344067796C 5851.268677966103 4982.847544067797 5851.836677966102 4981.308544067797 5851.836677966102 4979.4144440677965C 5851.836677966102 4977.520244067797 5851.268677966103 4975.981344067796 5850.131677966102 4974.797444067796C 5848.995677966102 4973.6136440677965 5847.527677966102 4973.021744067797 5845.727677966102 4973.021744067797C 5843.928677966102 4973.021744067797 5842.460677966103 4973.6136440677965 5841.323677966102 4974.797444067796C 5840.210677966103 4975.981344067796 5839.654677966102 4977.520244067797 5839.654677966102 4979.4144440677965C 5839.654677966102 4981.308544067797 5840.210677966103 4982.847544067797 5841.323677966102 4984.031344067796C 5842.460677966103 4985.215244067796 5843.928677966102 4985.807144067797 5845.727677966102 4985.807144067797ZM 5878.056677966102 4979.272344067796 C 5878.056677966102 4979.745944067797 5878.045677966102 4980.112844067797 5878.021677966102 4980.373344067797C 5872.966677966102 4980.373344067797 5867.911677966102 4980.373344067797 5862.856677966102 4980.373344067797C 5863.045677966102 4982.007044067796 5863.685677966102 4983.3092440677965 5864.774677966102 4984.279944067796C 5865.863677966102 4985.250744067796 5867.248677966102 4985.736144067797 5868.929677966102 4985.736144067797C 5870.0896779661025 4985.736144067797 5871.119677966102 4985.5111440677965 5872.019677966102 4985.061344067796C 5872.942677966103 4984.587744067797 5873.641677966102 4983.972244067797 5874.114677966102 4983.214544067797C 5875.203677966102 4983.392110734463 5876.292677966102 4983.56967740113 5877.381677966102 4983.747244067797C 5876.671677966102 4985.404644067797 5875.523677966102 4986.683144067797 5873.936677966102 4987.582944067796C 5872.374677966102 4988.482644067796 5870.634677966103 4988.9324440677965 5868.716677966102 4988.9324440677965C 5866.893677966103 4988.9324440677965 5865.259677966103 4988.529944067796 5863.815677966102 4987.724944067797C 5862.371677966102 4986.896244067797 5861.246677966102 4985.759744067796 5860.441677966102 4984.3155440677965C 5859.636677966102 4982.871244067796 5859.233677966102 4981.237544067797 5859.233677966102 4979.4144440677965C 5859.233677966102 4977.567644067796 5859.636677966102 4975.922044067796 5860.441677966102 4974.4778440677965C 5861.246677966102 4973.033544067796 5862.359677966102 4971.908844067797 5863.779677966102 4971.103844067797C 5865.200677966102 4970.275144067797 5866.822677966102 4969.860844067796 5868.645677966102 4969.860844067796C 5870.444677966102 4969.860844067796 5872.054677966102 4970.275144067797 5873.475677966102 4971.103844067797C 5874.919677966102 4971.908844067797 5876.044677966102 4973.033544067796 5876.849677966102 4974.4778440677965C 5877.654677966102 4975.898444067797 5878.056677966102 4977.496644067796 5878.056677966102 4979.272344067796ZM 5868.645677966102 4972.950644067797 C 5867.248677966102 4972.950644067797 5866.041677966102 4973.365044067797 5865.0226779661025 4974.193744067797C 5864.028677966102 4975.022444067797 5863.365677966102 4976.135144067796 5863.033677966102 4977.532144067796C 5866.774677966102 4977.532144067796 5870.515677966102 4977.532144067796 5874.256677966102 4977.532144067796C 5873.948677966102 4976.158844067797 5873.286677966102 4975.057944067797 5872.267677966102 4974.229244067797C 5871.273677966102 4973.376844067797 5870.065677966102 4972.950644067797 5868.645677966102 4972.950644067797ZM 5882.583677966102 4988.9324440677965 C 5881.944677966102 4988.9324440677965 5881.411677966102 4988.719344067797 5880.985677966102 4988.293244067797C 5880.559677966102 4987.867044067797 5880.346677966102 4987.346144067797 5880.346677966102 4986.7305440677965C 5880.346677966102 4986.114944067796 5880.559677966102 4985.594044067797 5880.985677966102 4985.167844067797C 5881.411677966102 4984.718044067797 5881.944677966102 4984.493044067796 5882.583677966102 4984.493044067796C 5883.198677966102 4984.493044067796 5883.720677966102 4984.718044067797 5884.146677966102 4985.167844067797C 5884.595677966102 4985.594044067797 5884.8216779661025 4986.114944067796 5884.8216779661025 4986.7305440677965C 5884.8216779661025 4987.346144067797 5884.595677966102 4987.867044067797 5884.146677966102 4988.293244067797C 5883.720677966102 4988.719344067797 5883.198677966102 4988.9324440677965 5882.583677966102 4988.9324440677965ZM 5900.119677966102 4988.9324440677965 C 5898.556677966102 4988.9324440677965 5897.183677966103 4988.612844067797 5895.999677966102 4987.973544067797C 5894.8396779661025 4987.310644067797 5893.880677966102 4986.493744067797 5893.123677966102 4985.523044067797C 5892.839344632769 4986.541144067796 5892.555011299435 4987.5592440677965 5892.270677966102 4988.577344067797C 5891.4303446327685 4988.577344067797 5890.590011299436 4988.577344067797 5889.749677966102 4988.577344067797C 5889.749677966102 4980.23127740113 5889.749677966102 4971.885210734463 5889.749677966102 4963.539144067797C 5890.909677966102 4963.539144067797 5892.069677966102 4963.539144067797 5893.229677966102 4963.539144067797C 5893.229677966102 4966.735510734463 5893.229677966102 4969.93187740113 5893.229677966102 4973.128244067797C 5893.987677966102 4972.204844067796 5894.945677966102 4971.435344067797 5896.106677966102 4970.819744067797C 5897.266677966102 4970.180444067797 5898.603677966103 4969.860844067796 5900.119677966102 4969.860844067796C 5901.847677966102 4969.860844067796 5903.387677966102 4970.275144067797 5904.736677966102 4971.103844067797C 5906.086677966102 4971.908844067797 5907.139677966102 4973.033544067796 5907.8976779661025 4974.4778440677965C 5908.678677966102 4975.922044067796 5909.069677966102 4977.567644067796 5909.069677966102 4979.4144440677965C 5909.069677966102 4981.237544067797 5908.678677966102 4982.871244067796 5907.8976779661025 4984.3155440677965C 5907.139677966102 4985.759744067796 5906.086677966102 4986.896244067797 5904.736677966102 4987.724944067797C 5903.387677966102 4988.529944067796 5901.847677966102 4988.9324440677965 5900.119677966102 4988.9324440677965ZM 5899.373677966102 4985.807144067797 C 5900.557677966102 4985.807144067797 5901.611677966102 4985.534844067796 5902.534677966102 4984.990244067797C 5903.458677966102 4984.445744067797 5904.168677966102 4983.688044067797 5904.6656779661025 4982.717344067796C 5905.186677966102 4981.746544067797 5905.4466779661025 4980.645644067797 5905.4466779661025 4979.4144440677965C 5905.4466779661025 4978.183244067796 5905.186677966102 4977.082244067797 5904.6656779661025 4976.111544067797C 5904.168677966102 4975.140744067797 5903.458677966102 4974.383144067797 5902.534677966102 4973.838544067797C 5901.611677966102 4973.2939440677965 5900.557677966102 4973.021744067797 5899.373677966102 4973.021744067797C 5898.189677966102 4973.021744067797 5897.124677966102 4973.2939440677965 5896.177677966102 4973.838544067797C 5895.2546779661025 4974.383144067797 5894.5316779661025 4975.140744067797 5894.011677966102 4976.111544067797C 5893.489677966102 4977.082244067797 5893.229677966102 4978.183244067796 5893.229677966102 4979.4144440677965C 5893.229677966102 4980.645644067797 5893.489677966102 4981.746544067797 5894.011677966102 4982.717344067796C 5894.5316779661025 4983.688044067797 5895.2546779661025 4984.445744067797 5896.177677966102 4984.990244067797C 5897.124677966102 4985.534844067796 5898.189677966102 4985.807144067797 5899.373677966102 4985.807144067797ZM 5916.467677966102 4988.577344067797 C 5915.307344632769 4988.577344067797 5914.147011299436 4988.577344067797 5912.986677966102 4988.577344067797C 5912.986677966102 4982.456910734463 5912.986677966102 4976.33647740113 5912.986677966102 4970.216044067796C 5914.147011299436 4970.216044067796 5915.307344632769 4970.216044067796 5916.467677966102 4970.216044067796C 5916.467677966102 4976.33647740113 5916.467677966102 4982.456910734463 5916.467677966102 4988.577344067797ZM 5914.762677966102 4967.303744067796 C 5914.099677966102 4967.303744067796 5913.554677966102 4967.102544067797 5913.128677966102 4966.700044067797C 5912.702677966102 4966.297444067796 5912.489677966102 4965.7647440677965 5912.489677966102 4965.101844067796C 5912.489677966102 4964.462544067796 5912.702677966102 4963.941644067797 5913.128677966102 4963.539144067797C 5913.554677966102 4963.112944067797 5914.099677966102 4962.899844067797 5914.762677966102 4962.899844067797C 5915.377677966102 4962.899844067797 5915.898677966102 4963.112944067797 5916.325677966102 4963.539144067797C 5916.751677966102 4963.941644067797 5916.9646779661025 4964.462544067796 5916.9646779661025 4965.101844067796C 5916.9646779661025 4965.741144067797 5916.751677966102 4966.273844067797 5916.325677966102 4966.700044067797C 5915.922677966102 4967.102544067797 5915.401677966102 4967.303744067796 5914.762677966102 4967.303744067796ZM 5935.438677966102 4988.577344067797 C 5930.478344632769 4988.577344067797 5925.518011299436 4988.577344067797 5920.557677966102 4988.577344067797C 5920.557677966102 4987.29877740113 5920.557677966102 4986.020210734463 5920.557677966102 4984.741644067796C 5924.109011299435 4981.119110734463 5927.660344632769 4977.49657740113 5931.211677966102 4973.874044067797C 5931.211677966102 4973.708310734463 5931.211677966102 4973.54257740113 5931.211677966102 4973.376844067797C 5927.766677966102 4973.376844067797 5924.3216779661025 4973.376844067797 5920.876677966102 4973.376844067797C 5920.876677966102 4972.323244067797 5920.876677966102 4971.269644067796 5920.876677966102 4970.216044067796C 5925.6950112994355 4970.216044067796 5930.513344632769 4970.216044067796 5935.331677966102 4970.216044067796C 5935.331677966102 4971.49457740113 5935.331677966102 4972.773110734463 5935.331677966102 4974.051644067797C 5931.7800112994355 4977.67417740113 5928.228344632769 4981.296710734463 5924.676677966102 4984.919244067796C 5924.676677966102 4985.096810734463 5924.676677966102 4985.27437740113 5924.676677966102 4985.451944067797C 5928.264011299436 4985.451944067797 5931.851344632769 4985.451944067797 5935.438677966102 4985.451944067797C 5935.438677966102 4986.493744067797 5935.438677966102 4987.535544067797 5935.438677966102 4988.577344067797Z"></path><path fill="#232324" stroke="none" fill-opacity="1" stroke-width="1" stroke-opacity="1" font-size-adjust="none" id="tSvgf3f0f2a81d" title="Path 10" d="M 5744.394677966102 4953.118644067797 C 5738.540377966102 4953.118644067797 5732.686077966102 4953.118644067797 5726.831777966102 4953.118644067797C 5718.331537966103 4953.118644067797 5711.440677966102 4960.009504067797 5711.440677966102 4968.509744067796C 5711.440677966102 4974.364044067796 5711.440677966102 4980.218344067796 5711.440677966102 4986.072644067796C 5711.440677966102 4994.572844067797 5718.331537966103 5001.463744067796 5726.831777966102 5001.463744067796C 5732.686077966102 5001.463744067796 5738.540377966102 5001.463744067796 5744.394677966102 5001.463744067796C 5752.894877966102 5001.463744067796 5759.785777966103 4994.572844067797 5759.785777966103 4986.072644067796C 5759.785777966103 4980.218344067796 5759.785777966103 4974.364044067796 5759.785777966103 4968.509744067796C 5759.785777966103 4960.009504067797 5752.894877966102 4953.118644067797 5744.394677966102 4953.118644067797Z" mask="url(#tSvg6970b0b229)"></path><path fill="white" stroke="none" fill-opacity="1" stroke-width="1" stroke-opacity="1" font-size-adjust="none" id="tSvg1834246695e" title="Path 11" d="M 5746.886277966102 4978.272344067796 C 5746.886277966102 4978.5556440677965 5746.886277966102 4978.724644067796 5746.886277966102 4978.890844067797C 5746.886277966102 4980.008844067796 5746.857077966102 4981.125844067797 5746.886277966102 4982.242944067797C 5746.908977966103 4983.243844067797 5746.562477966102 4984.013344067796 5745.679577966102 4984.526944067797C 5744.0082779661025 4985.500544067797 5742.348377966102 4986.491944067797 5740.675177966102 4987.458844067796C 5739.408877966102 4988.189744067797 5738.120077966102 4988.881844067797 5736.854677966102 4989.6136440677965C 5736.013377966102 4990.100844067797 5735.213677966102 4990.111244067796 5734.360977966102 4989.619344067796C 5731.4583779661025 4987.947444067797 5728.548577966102 4986.288944067796 5725.631377966102 4984.644044067797C 5724.756077966103 4984.153144067796 5724.367077966102 4983.483644067796 5724.378377966103 4982.462944067796C 5724.416177966102 4979.143944067797 5724.392577966102 4975.822944067797 5724.393477966102 4972.5030440677965C 5724.393477966102 4972.298144067797 5724.406777966102 4972.094244067796 5724.4048779661025 4971.889344067797C 5724.4048779661025 4971.179244067796 5724.706077966102 4970.670244067796 5725.331177966103 4970.314344067797C 5727.080777966102 4969.318144067796 5728.816377966102 4968.299244067796 5730.559477966102 4967.291844067797C 5731.906877966102 4966.512844067796 5733.264677966102 4965.749844067796 5734.603677966102 4964.955744067796C 5735.296777966102 4964.544044067797 5735.961477966102 4964.529844067796 5736.653577966103 4964.929344067797C 5739.675177966102 4966.673344067796 5742.709077966102 4968.403144067796 5745.723077966102 4970.162344067797C 5746.724877966102 4970.7467440677965 5747.182877966102 4972.101744067797 5746.715477966102 4973.170644067796C 5746.554877966102 4973.537944067796 5746.171577966102 4973.8618440677965 5745.813677966102 4974.078044067796C 5743.684377966102 4975.357544067797 5741.537177966102 4976.607644067796 5739.386277966102 4977.855044067796C 5737.314577966102 4979.050444067797 5735.237277966102 4980.225044067796 5733.166477966102 4981.418544067797C 5732.7888779661025 4981.638544067797 5732.435677966102 4981.907644067796 5732.063677966102 4982.142744067796C 5731.798377966102 4982.310944067796 5731.780377966103 4982.466744067797 5732.057977966102 4982.6271440677965C 5733.1431779661025 4983.263044067797 5734.228377966102 4983.8969440677965 5735.313677966102 4984.528844067797C 5735.6121779661025 4984.703644067797 5735.880277966102 4984.615744067796 5736.153177966102 4984.455244067796C 5739.567577966102 4982.476144067797 5742.983377966102 4980.500444067797 5746.400977966102 4978.528244067797C 5746.520977966102 4978.459344067796 5746.645577966102 4978.398844067797 5746.886277966102 4978.272344067796ZM 5729.218577966102 4975.785244067796 C 5729.216377966102 4975.785244067796 5729.214177966102 4975.785244067796 5729.2119779661025 4975.785244067796C 5729.2119779661025 4976.382044067796 5729.2119779661025 4976.9787440677965 5729.2119779661025 4977.579244067797C 5729.2119779661025 4977.940944067796 5729.329077966102 4978.035344067796 5729.666177966102 4977.838944067797C 5732.761477966103 4976.042444067796 5735.858877966102 4974.248444067796 5738.958477966102 4972.456844067797C 5739.375877966102 4972.215044067797 5739.388177966102 4972.103644067796 5739.016077966102 4971.890244067797C 5738.006677966102 4971.317144067797 5737.0010779661025 4970.734544067796 5735.973777966102 4970.190644067797C 5735.865677966102 4970.143044067797 5735.748677966102 4970.1190440677965 5735.630677966102 4970.120344067796C 5735.512477966102 4970.121644067796 5735.396077966102 4970.148244067796 5735.289177966102 4970.198144067796C 5733.376177966102 4971.285944067797 5731.482977966102 4972.403944067796 5729.571777966102 4973.494544067797C 5729.451877966102 4973.549944067797 5729.352477966102 4973.641744067797 5729.287477966102 4973.756844067797C 5729.222677966102 4973.871844067797 5729.195577966102 4974.004444067797 5729.210077966102 4974.135644067796C 5729.229877966102 4974.6851440677965 5729.218577966102 4975.234744067797 5729.218577966102 4975.785244067796Z" mask="url(#tSvg6970b0b229)"></path><defs></defs></svg> 