<svg width="248" height="70" viewBox="0 0 248 70" fill="none" xmlns="http://www.w3.org/2000/svg">
<path d="M104.066 60.8523H93.7997V24.2415H104.066V60.8523ZM105.03 13.6619C105.03 15.5644 104.41 17.0724 103.17 18.1861C101.976 19.2533 100.552 19.7869 98.8982 19.7869C97.2446 19.7869 95.7978 19.2533 94.5576 18.1861C93.3634 17.0724 92.7663 15.5644 92.7663 13.6619C92.7663 11.7595 93.3634 10.2746 94.5576 9.20738C95.7978 8.09375 97.2446 7.53693 98.8982 7.53693C100.552 7.53693 101.976 8.09375 103.17 9.20738C104.41 10.2746 105.03 11.7595 105.03 13.6619Z" fill="white"/>
<path d="M123.981 37.4659C124.992 36.3523 126.025 35.1922 127.082 33.9858C128.184 32.7794 129.241 31.5961 130.251 30.4361C131.262 29.2296 132.203 28.0928 133.076 27.0256C133.995 25.9583 134.775 25.0303 135.418 24.2415H147.613C145.179 27.072 142.791 29.7865 140.448 32.3849C138.151 34.937 135.625 37.5819 132.869 40.3196C134.247 41.5724 135.671 43.0805 137.141 44.8438C138.611 46.5606 140.035 48.3471 141.413 50.2031C142.791 52.0592 144.054 53.9152 145.202 55.7713C146.35 57.6274 147.315 59.321 148.096 60.8523H136.314C135.579 59.6458 134.729 58.3234 133.765 56.8849C132.846 55.4001 131.859 53.9384 130.802 52.5C129.746 51.0152 128.621 49.5999 127.426 48.2543C126.278 46.9086 125.13 45.7718 123.981 44.8438V60.8523H113.716V8.51136L123.981 6.84091V37.4659Z" fill="white"/>
<path d="M163.88 60.8523H153.615V24.2415H163.88V60.8523ZM164.845 13.6619C164.845 15.5644 164.225 17.0724 162.985 18.1861C161.79 19.2533 160.367 19.7869 158.713 19.7869C157.059 19.7869 155.613 19.2533 154.372 18.1861C153.178 17.0724 152.581 15.5644 152.581 13.6619C152.581 11.7595 153.178 10.2746 154.372 9.20738C155.613 8.09375 157.059 7.53693 158.713 7.53693C160.367 7.53693 161.79 8.09375 162.985 9.20738C164.225 10.2746 164.845 11.7595 164.845 13.6619Z" fill="white"/>
<path d="M69.2917 35C69.2917 54.33 53.7802 70 34.6459 70C15.5115 70 0 54.33 0 35C0 15.67 15.5115 0 34.6459 0C53.7802 0 69.2917 15.67 69.2917 35ZM10.6611 35C10.6611 48.3818 21.3994 59.2299 34.6459 59.2299C47.8923 59.2299 58.6306 48.3818 58.6306 35C58.6306 21.6182 47.8923 10.7701 34.6459 10.7701C21.3994 10.7701 10.6611 21.6182 10.6611 35Z" fill="white"/>
<path d="M69.7644 14.517C71.6475 13.4187 74.0728 14.0645 74.9893 16.0564C78.3738 23.4122 79.735 31.5816 78.8906 39.6978C78.0462 47.8141 75.0334 55.519 70.2089 62.0032C68.9025 63.7591 66.3973 63.8813 64.7814 62.4115L38.6729 38.663C36.6852 36.855 37.0224 33.6139 39.3387 32.2629L69.7644 14.517Z" fill="#3C68F4"/>
<path d="M173.53 25.4943C175.276 24.9839 177.526 24.5199 180.282 24.1023C183.038 23.6383 185.932 23.4062 188.964 23.4062C192.041 23.4062 194.59 23.8239 196.611 24.6591C198.678 25.4479 200.309 26.5848 201.503 28.0696C202.697 29.5545 203.547 31.3177 204.052 33.3594C204.557 35.401 204.81 37.6747 204.81 40.1804V60.8523H194.544V41.4332C194.544 38.0923 194.108 35.7259 193.235 34.3338C192.362 32.9418 190.732 32.2457 188.343 32.2457C187.609 32.2457 186.828 32.2921 186.001 32.3849C185.174 32.4313 184.439 32.5009 183.796 32.5938V60.8523H173.53V25.4943Z" fill="#3C68F4"/>
<path d="M248 42.4773C248 45.3542 247.587 47.9991 246.76 50.4119C245.933 52.7784 244.739 54.8201 243.177 56.5369C241.615 58.2074 239.732 59.5066 237.527 60.4347C235.369 61.3627 232.934 61.8267 230.224 61.8267C227.56 61.8267 225.126 61.3627 222.921 60.4347C220.762 59.5066 218.902 58.2074 217.34 56.5369C215.779 54.8201 214.561 52.7784 213.689 50.4119C212.816 47.9991 212.38 45.3542 212.38 42.4773C212.38 39.6004 212.816 36.9787 213.689 34.6122C214.607 32.2457 215.848 30.2273 217.409 28.5568C219.017 26.8864 220.9 25.5871 223.059 24.6591C225.264 23.7311 227.652 23.267 230.224 23.267C232.842 23.267 235.231 23.7311 237.39 24.6591C239.594 25.5871 241.478 26.8864 243.039 28.5568C244.601 30.2273 245.818 32.2457 246.691 34.6122C247.564 36.9787 248 39.6004 248 42.4773ZM237.527 42.4773C237.527 39.2756 236.884 36.7699 235.598 34.9602C234.358 33.1042 232.567 32.1761 230.224 32.1761C227.882 32.1761 226.067 33.1042 224.781 34.9602C223.495 36.7699 222.852 39.2756 222.852 42.4773C222.852 45.679 223.495 48.2311 224.781 50.1335C226.067 51.9896 227.882 52.9176 230.224 52.9176C232.567 52.9176 234.358 51.9896 235.598 50.1335C236.884 48.2311 237.527 45.679 237.527 42.4773Z" fill="#3C68F4"/>
</svg>