<?xml version="1.0" standalone="no"?>
<!DOCTYPE svg PUBLIC "-//W3C//DTD SVG 20010904//EN"
 "http://www.w3.org/TR/2001/REC-SVG-20010904/DTD/svg10.dtd">
<svg version="1.0" xmlns="http://www.w3.org/2000/svg"
 width="12122.000000pt" height="11641.000000pt" viewBox="0 0 12122.000000 11641.000000"
 preserveAspectRatio="xMidYMid meet">

<g transform="translate(0.000000,11641.000000) scale(0.100000,-0.100000)"
fill="#4f40ec" stroke="none">
<path d="M77360 116389 c-1032 -56 -2033 -235 -3077 -550 -1739 -524 -3273
-1384 -4543 -2546 -213 -196 -639 -626 -814 -823 -521 -586 -986 -1217 -1401
-1900 -48 -80 -1935 -3344 -4193 -7255 -2535 -4392 -4148 -7175 -4217 -7280
-166 -249 -303 -414 -524 -635 -332 -331 -619 -536 -1026 -735 -438 -214 -872
-338 -1390 -397 -143 -16 -617 -16 -760 0 -764 88 -1470 374 -2123 861 -881
657 -1418 1605 -1559 2751 -25 203 -25 659 0 855 38 295 122 645 215 895 125
334 199 475 767 1460 272 470 1250 2164 2174 3765 l1680 2910 -27 16 c-15 9
-1588 918 -3496 2019 -2826 1631 -3471 1999 -3481 1988 -11 -12 -4163 -7201
-4367 -7563 -1192 -2104 -1723 -4390 -1553 -6685 63 -841 228 -1755 469 -2589
24 -84 40 -149 36 -145 -5 5 -965 1667 -2135 3694 -1170 2027 -2166 3750
-2213 3830 -787 1335 -1750 2465 -2862 3355 -1248 1000 -2689 1721 -4345 2176
-1110 305 -2214 459 -3295 459 -1786 0 -3515 -416 -5199 -1250 -1605 -795
-2967 -1834 -4025 -3069 -1225 -1430 -2079 -3158 -2540 -5136 -247 -1064 -350
-2041 -325 -3105 41 -1706 492 -3417 1333 -5055 192 -374 -452 746 6414
-11145 1120 -1939 2071 -3592 2113 -3675 411 -797 543 -1639 394 -2505 -75
-432 -230 -877 -437 -1254 -87 -158 -252 -405 -370 -554 -134 -167 -439 -471
-608 -606 -74 -59 -211 -158 -305 -220 -1149 -765 -2363 -938 -3610 -516 -887
301 -1597 876 -2102 1705 -44 72 -1042 1797 -2218 3835 -1176 2038 -2140 3707
-2141 3709 -4 5 -6994 -4033 -6994 -4041 0 -9 4299 -7454 4427 -7668 353 -584
741 -1128 1178 -1650 391 -467 918 -996 1385 -1391 1344 -1137 2973 -1959
4803 -2423 114 -29 210 -56 214 -59 3 -4 -2023 -7 -4503 -7 -2797 0 -4583 -4
-4704 -10 -2209 -111 -4116 -706 -5863 -1832 -536 -345 -1050 -741 -1592
-1227 -198 -177 -773 -753 -959 -961 -979 -1091 -1700 -2235 -2214 -3515 -560
-1395 -842 -2925 -842 -4570 0 -3174 1035 -5875 3127 -8165 152 -166 551 -567
743 -748 1406 -1318 3025 -2246 4794 -2747 867 -246 1686 -378 2766 -447 138
-9 2332 -13 8715 -18 7967 -6 8538 -7 8655 -23 322 -44 555 -95 807 -178 829
-272 1560 -833 2060 -1584 438 -656 653 -1399 653 -2255 0 -1139 -381 -2087
-1150 -2860 -722 -726 -1578 -1107 -2625 -1170 -110 -6 -1704 -10 -4502 -10
l-4333 0 0 -4040 0 -4041 4563 4 c3323 3 4608 7 4732 15 742 51 1236 113 1810
227 1929 383 3646 1209 5185 2496 328 275 725 642 992 919 82 85 144 144 137
130 -6 -14 -960 -1667 -2119 -3675 -1159 -2007 -2155 -3733 -2212 -3835 -501
-883 -896 -1810 -1162 -2735 -573 -1987 -591 -4037 -56 -6155 475 -1876 1279
-3476 2439 -4850 393 -465 926 -995 1406 -1396 1107 -925 2472 -1723 3811
-2227 1739 -655 3509 -879 5344 -676 1551 171 3177 664 4522 1370 843 443
1584 958 2308 1603 161 144 674 654 821 816 597 662 1101 1354 1581 2170 47
80 1623 2809 3503 6065 1880 3256 3695 6399 4033 6985 338 586 644 1112 680
1170 568 912 1409 1527 2433 1779 889 219 1755 137 2604 -246 321 -145 688
-370 976 -600 168 -134 474 -439 605 -603 463 -581 742 -1272 840 -2080 21
-171 24 -594 6 -770 -53 -505 -202 -992 -446 -1465 -46 -88 -1054 -1841 -2240
-3894 l-2156 -3735 27 -17 c212 -131 6967 -4019 6973 -4012 15 15 4332 7497
4448 7708 127 232 343 664 441 880 597 1325 923 2580 1037 3995 21 266 30
1079 15 1377 -51 993 -214 1943 -511 2967 -11 38 -16 65 -11 60 4 -5 894
-1543 1976 -3419 2387 -4137 2385 -4132 2503 -4325 1064 -1736 2441 -3106
4092 -4072 1983 -1160 4521 -1793 6770 -1688 2042 96 3958 710 5860 1878 1704
1047 3069 2419 4027 4048 819 1392 1384 3061 1612 4759 78 579 106 1072 98
1705 -6 427 -11 543 -43 885 -142 1568 -643 3164 -1459 4650 -72 131 -1629
2829 -8240 14280 -302 524 -486 1065 -551 1630 -24 206 -24 614 0 820 32 275
78 505 147 735 274 913 816 1645 1614 2177 961 641 1990 868 3029 667 1114
-215 1992 -803 2611 -1749 51 -77 1068 -1830 2260 -3895 1192 -2065 2169
-3756 2170 -3758 2 -2 1576 905 3499 2015 2470 1426 3494 2022 3491 2032 -6
14 -4108 7123 -4318 7481 -1390 2373 -3270 4044 -5682 5050 -542 226 -1166
434 -1745 581 -129 33 -242 63 -250 67 -8 4 2071 10 4620 13 3491 4 4672 8
4785 17 496 40 748 67 1065 113 2071 301 3923 1104 5563 2412 911 727 1742
1594 2427 2532 140 192 425 623 553 835 682 1135 1152 2355 1412 3665 231
1160 298 2396 200 3645 -201 2539 -1134 4793 -2780 6715 -394 460 -902 974
-1355 1372 -1919 1683 -4157 2643 -6695 2872 -121 11 -301 25 -400 31 -99 5
-207 13 -240 16 -33 3 -3907 9 -8610 13 -7979 6 -8558 8 -8675 24 -516 70
-872 172 -1266 361 -395 191 -733 428 -1055 743 -334 327 -577 657 -779 1058
-213 422 -334 828 -397 1335 -23 183 -26 805 -5 995 106 958 476 1733 1151
2405 593 591 1306 962 2104 1095 391 64 -15 59 4890 62 l4447 3 0 4041 0 4040
-4562 -4 c-3339 -3 -4609 -7 -4733 -15 -637 -44 -1028 -88 -1491 -167 -2115
-362 -3977 -1244 -5634 -2665 -258 -222 -461 -411 -748 -697 -151 -151 -265
-259 -254 -241 70 116 4307 7461 4394 7618 212 380 477 926 641 1320 914 2198
1134 4469 662 6810 -336 1665 -942 3162 -1806 4460 -430 646 -862 1173 -1414
1725 -682 683 -1414 1260 -2268 1789 -1463 905 -2968 1487 -4512 1745 -364 60
-684 98 -1120 132 -184 14 -1095 20 -1305 8z m805 -8099 c520 -47 974 -179
1466 -425 720 -361 1292 -867 1687 -1493 462 -734 682 -1688 586 -2542 -55
-487 -197 -948 -433 -1405 -43 -82 -3253 -5651 -7135 -12374 -3882 -6723
-7054 -12226 -7049 -12230 4 -4 51 -23 103 -41 2466 -854 4785 -2193 6749
-3894 100 -86 126 -105 136 -94 7 7 1577 2724 3490 6038 1912 3314 3486 6039
3497 6055 11 17 17 22 14 11 -20 -60 -101 -379 -140 -546 -140 -610 -233
-1226 -281 -1865 -49 -650 -48 -1420 1 -2075 206 -2744 1248 -5134 3126 -7165
189 -205 610 -624 803 -801 1161 -1062 2443 -1854 3840 -2374 959 -356 1969
-584 3040 -685 563 -53 -131 -49 9165 -55 8031 -5 8575 -7 8720 -23 336 -38
618 -97 895 -189 752 -250 1420 -741 1924 -1415 431 -576 673 -1217 753 -1993
19 -186 16 -696 -5 -890 -107 -962 -479 -1743 -1146 -2410 -527 -526 -1147
-880 -1834 -1045 -288 -69 -525 -101 -867 -115 -138 -6 -5650 -10 -14284 -10
l-14058 0 5 -22 c15 -57 99 -538 136 -768 115 -726 184 -1400 232 -2245 17
-304 23 -1358 10 -1715 -41 -1122 -177 -2306 -377 -3299 l-7 -33 3334 2 c1834
1 4983 2 6999 0 3235 -2 3659 -4 3610 -16 -1098 -292 -2096 -705 -3120 -1292
-2882 -1651 -4762 -4040 -5656 -7183 -476 -1674 -606 -3332 -389 -4929 205
-1498 717 -2972 1525 -4389 64 -113 1923 -3333 4130 -7156 2208 -3822 4051
-7022 4097 -7111 238 -462 373 -883 440 -1374 25 -188 25 -735 0 -922 -67
-498 -188 -906 -392 -1323 -310 -635 -749 -1130 -1365 -1540 -602 -401 -1190
-626 -1855 -712 -172 -22 -668 -25 -840 -5 -846 98 -1595 416 -2193 930 -297
255 -586 595 -800 940 -44 70 -3248 5617 -7122 12327 -3874 6710 -7048 12206
-7055 12213 -10 11 -28 1 -96 -60 -226 -200 -651 -547 -968 -790 -1724 -1326
-3707 -2400 -5736 -3108 -99 -35 -184 -66 -188 -70 -5 -5 1563 -2730 3483
-6056 1921 -3327 3495 -6053 3497 -6059 3 -5 -48 42 -113 106 -856 832 -1662
1441 -2675 2022 -2900 1662 -5948 2074 -9123 1231 -1386 -368 -2600 -907
-3701 -1645 -445 -298 -857 -619 -1273 -992 -182 -163 -617 -595 -783 -777
-544 -598 -1051 -1277 -1484 -1990 -48 -80 -1935 -3344 -4193 -7255 -2258
-3910 -4143 -7168 -4190 -7240 -674 -1032 -1650 -1639 -2897 -1802 -200 -26
-722 -26 -915 0 -516 70 -981 223 -1445 474 -539 293 -973 649 -1318 1083
-691 868 -992 2061 -796 3150 66 365 192 736 376 1104 41 83 1261 2205 2711
4716 1449 2511 4631 8021 7069 12244 2439 4224 4430 7682 4426 7686 -4 4 -89
35 -188 69 -1190 414 -2444 994 -3564 1648 -1078 630 -2109 1364 -3056 2177
-93 80 -172 146 -175 146 -3 -1 -1580 -2729 -3505 -6064 -1925 -3335 -3501
-6063 -3502 -6062 -1 1 14 60 33 131 395 1449 520 3128 353 4735 -250 2414
-1177 4575 -2750 6411 -428 500 -978 1050 -1478 1478 -1935 1658 -4215 2593
-6791 2785 -113 9 -302 20 -420 26 -142 6 -3054 10 -8520 10 -5592 0 -8367 3
-8495 10 -1094 60 -2000 480 -2737 1270 -728 780 -1081 1742 -1055 2875 12
530 101 988 279 1435 351 882 1053 1646 1908 2076 411 206 788 318 1320 391
118 16 965 18 14405 20 7853 2 14282 6 14286 11 4 4 2 37 -6 73 -23 107 -102
560 -134 769 -238 1529 -303 3095 -196 4650 44 623 118 1265 220 1890 45 270
111 638 121 672 5 17 -335 18 -7003 20 -5745 3 -7000 5 -6963 16 25 7 158 45
295 83 1258 355 2535 958 3720 1756 1316 888 2387 1953 3224 3208 645 966
1140 2025 1496 3200 830 2740 737 5396 -280 7930 -187 466 -466 1051 -702
1475 -60 107 -1943 3370 -4183 7250 -2241 3880 -4110 7127 -4155 7215 -297
588 -436 1157 -436 1785 -1 625 138 1222 414 1784 198 405 410 700 731 1021
337 337 677 580 1131 810 564 286 1101 426 1695 442 590 15 1152 -93 1703
-329 785 -335 1396 -884 1865 -1673 71 -120 1903 -3293 9892 -17133 2318
-4016 4217 -7301 4220 -7302 3 0 82 66 175 146 1953 1675 4241 2997 6620 3825
99 34 184 65 188 69 5 5 -6394 11106 -6960 12075 -34 57 -28 53 139 -110 855
-836 1786 -1521 2883 -2122 1458 -799 2966 -1283 4505 -1447 436 -47 689 -59
1190 -60 472 0 659 8 1065 45 1732 158 3504 697 4990 1519 1222 676 2322 1589
3233 2682 426 511 823 1074 1179 1668 44 74 1919 3320 4167 7212 2247 3893
4115 7124 4152 7180 362 559 826 1005 1364 1310 518 294 1087 467 1715 521 94
8 499 6 600 -3z"/>
</g>
</svg>