<svg width="1800" height="700" viewBox="0 0 1800 700" fill="white" xmlns="http://www.w3.org/2000/svg">
<path fill-rule="evenodd" clip-rule="evenodd" d="M42.078 480.597L200.847 639.367C203.706 642.257 207.114 644.547 210.87 646.097C214.627 647.647 218.656 648.437 222.72 648.407C226.785 648.387 230.806 647.547 234.54 645.947C238.278 644.347 241.657 642.017 244.48 639.087L402.968 480.597C408.784 474.767 412.047 466.877 412.047 458.647C412.047 450.407 408.784 442.517 402.968 436.687L244.48 278.195C238.65 272.382 230.755 269.119 222.522 269.119C214.29 269.119 206.393 272.382 200.565 278.195L42.075 436.687C36.263 442.517 32.999 450.407 33 458.637C33 466.877 36.265 474.767 42.078 480.597ZM165.663 403.617H212.228V531.077H239.268V403.617H285.832V379.147H165.663V403.617Z" />
<path d="M662.394 409.867L685.662 471.347H638.695L662.394 409.867Z" />
<path fill-rule="evenodd" clip-rule="evenodd" d="M685.906 639.087L844.393 480.597C850.206 474.767 853.473 466.877 853.473 458.637C853.473 450.407 850.21 442.517 844.397 436.687L685.909 278.195C680.079 272.382 672.184 269.119 663.951 269.119C655.718 269.119 647.823 272.382 641.993 278.195L483.505 436.687C477.689 442.517 474.426 450.407 474.426 458.647C474.426 466.877 477.689 474.767 483.505 480.597L641.993 639.087C647.823 644.907 655.718 648.167 663.951 648.167C672.181 648.167 680.076 644.897 685.906 639.087ZM674.775 377.847H651.506L585.752 528.997H615.854L629.517 494.407H695.057L709.147 528.997H739.887L674.775 377.847Z" />
<path fill-rule="evenodd" clip-rule="evenodd" d="M1141.01 639.087L1299.5 480.597C1305.31 474.767 1308.57 466.877 1308.57 458.637C1308.58 450.407 1305.31 442.517 1299.5 436.687L1141.01 278.195C1135.18 272.382 1127.29 269.119 1119.05 269.119C1110.82 269.119 1102.92 272.382 1097.1 278.195L938.613 436.687C932.793 442.517 929.533 450.407 929.533 458.637C929.533 466.877 932.793 474.767 938.613 480.597L1097.1 639.087C1102.92 644.907 1110.82 648.167 1119.05 648.167C1127.29 648.167 1135.18 644.897 1141.01 639.087ZM1046.65 379.137L1097.29 451.667L1043.22 531.067H1075.83L1115.74 466.907L1155.87 531.067H1190.21L1135.06 451.667L1184.84 379.137H1152.01L1116.6 435.357L1080.77 379.137H1046.65Z" />
<path fill-rule="evenodd" clip-rule="evenodd" d="M1599.12 641.227L1758.47 481.877C1764.31 476.017 1767.6 468.077 1767.6 459.797C1767.6 451.527 1764.32 443.587 1758.47 437.727L1599.12 278.376C1593.26 272.532 1585.32 269.248 1577.05 269.248C1568.77 269.248 1560.83 272.532 1554.97 278.376L1395.62 437.727C1389.78 443.587 1386.49 451.527 1386.49 459.797C1386.49 468.077 1389.78 476.017 1395.62 481.877L1554.97 641.227C1560.83 647.067 1568.77 650.347 1577.05 650.347C1585.32 650.347 1593.26 647.067 1599.12 641.227ZM1588.19 380.677H1561.14V532.647H1588.19V380.677Z" />
<path fill-rule="evenodd" clip-rule="evenodd" d="M1375.47 418.967L1533.96 260.479C1539.77 254.653 1543.04 246.754 1543.04 238.525C1543.04 230.292 1539.77 222.397 1533.96 216.567L1375.47 58.079C1369.64 52.266 1361.75 49 1353.51 49C1345.28 49 1337.39 52.266 1331.56 58.079L1173.06 216.567C1167.25 222.397 1163.99 230.292 1163.99 238.525C1163.99 246.758 1167.25 254.653 1173.06 260.483L1331.56 418.977C1337.39 424.787 1345.28 428.047 1353.51 428.047C1361.74 428.047 1369.64 424.787 1375.47 418.967ZM1362.02 200.869H1336.4V303.341H1362.02V200.869ZM1337.26 155.397C1334.27 158.383 1332.77 161.943 1332.77 166.07C1332.77 170.197 1334.27 173.825 1337.26 176.959C1340.39 179.945 1344.3 181.44 1349 181.44C1353.7 181.44 1357.61 180.017 1360.74 177.17C1364.01 174.184 1365.65 170.483 1365.65 166.07C1365.65 161.657 1364.01 158.028 1360.74 155.182C1357.61 152.195 1353.7 150.7 1349 150.7C1344.3 150.7 1340.39 152.267 1337.26 155.397Z" />
<path fill-rule="evenodd" clip-rule="evenodd" d="M264.987 260.496L423.755 419.267C426.615 422.157 430.022 424.447 433.78 425.997C437.535 427.547 441.566 428.337 445.631 428.307C449.693 428.287 453.714 427.447 457.448 425.847C461.185 424.247 464.565 421.917 467.388 418.987L625.879 260.5C631.692 254.67 634.955 246.775 634.955 238.542C634.955 230.309 631.692 222.414 625.879 216.584L467.388 58.0961C461.558 52.2831 453.662 49.0171 445.43 49.0171C437.197 49.0171 429.302 52.2831 423.475 58.0961L264.984 216.584C259.171 222.414 255.908 230.309 255.908 238.542C255.908 246.771 259.174 254.666 264.987 260.496ZM454.332 200.872H428.711V303.344H454.332V200.872ZM429.564 155.4C426.578 158.39 425.083 161.947 425.083 166.073C425.083 170.2 426.578 173.832 429.564 176.962C432.698 179.952 436.609 181.444 441.306 181.444C446.003 181.444 449.918 180.02 453.048 177.174C456.321 174.187 457.96 170.487 457.96 166.073C457.96 161.663 456.321 158.032 453.048 155.185C449.918 152.198 446.003 150.703 441.306 150.703C436.609 150.703 432.698 152.27 429.564 155.4Z" />
<path fill-rule="evenodd" clip-rule="evenodd" d="M913.655 418.987L1072.14 260.496C1077.95 254.666 1081.22 246.771 1081.22 238.542C1081.22 230.309 1077.95 222.414 1072.14 216.584L913.655 58.0961C907.835 52.2831 899.935 49.0171 891.695 49.0171C883.465 49.0171 875.571 52.2831 869.745 58.0961L711.253 216.584C705.44 222.414 702.174 230.309 702.174 238.542C702.174 246.775 705.44 254.67 711.253 260.5L869.745 418.987C875.571 424.797 883.465 428.067 891.695 428.067C899.935 428.067 907.825 424.797 913.655 418.987ZM875.902 141.934H850.285V303.327H875.902V251.025H876.329L917.105 303.327H951.055L904.295 247.396L948.275 200.855H915.395L875.902 243.338V141.934Z" />
</svg>