<svg width="102" height="24" viewBox="0 0 102 24" fill="none" xmlns="http://www.w3.org/2000/svg">
<path d="M46.49 11.8239C46.49 8.46719 43.8995 5.91614 40.245 5.91614C36.5905 5.91614 34 8.44482 34 11.9581C34 15.4714 36.5905 18.0001 40.245 18.0001C42.743 18.0001 45.1022 16.8588 46.0043 14.6435L43.5063 14.2407C42.928 15.0686 41.8178 15.6504 40.4069 15.6504C38.3715 15.6504 37.03 14.4421 36.7755 12.6518H46.4437C46.4669 12.4057 46.49 12.1372 46.49 11.8239ZM40.245 8.15391C41.9103 8.15391 43.1593 9.18328 43.5988 10.6379H36.9375C37.3769 9.13852 38.6259 8.15391 40.245 8.15391Z" fill="black"/>
<path d="M49.9096 17.7762L52.662 13.3678H53.1014L55.6688 17.7762H58.7682L54.9518 11.6671L58.3287 6.13989H55.3913L53.0321 10.0559H52.5926L50.349 6.13989H47.3422L50.7191 11.8238L46.9027 17.7762H49.9096Z" fill="black"/>
<path d="M65.6151 18.0001C69.3852 18.0001 72.0451 15.4938 72.0451 11.9581C72.0451 8.42244 69.3852 5.91614 65.6151 5.91614C61.845 5.91614 59.1851 8.42244 59.1851 11.9581C59.1851 15.4938 61.845 18.0001 65.6151 18.0001ZM65.6151 15.6504C63.4409 15.6504 61.9606 14.1511 61.9606 11.9581C61.9606 9.7651 63.4409 8.26579 65.6151 8.26579C67.7893 8.26579 69.2696 9.7651 69.2696 11.9581C69.2696 14.1511 67.7893 15.6504 65.6151 15.6504Z" fill="black"/>
<path d="M79.5386 18C81.7359 18 83.2625 16.8811 84.0951 15.8965L84.6502 17.7762H86.6394V2H83.9795V7.90769C83.1468 6.94545 81.6434 5.91608 79.5386 5.91608C76.0923 5.91608 73.6637 8.44476 73.6637 11.958C73.6637 15.4713 76.0923 18 79.5386 18ZM80.1862 15.6951C77.9658 15.6951 76.4392 14.151 76.4392 11.958C76.4392 9.76504 77.9658 8.22098 80.1862 8.22098C82.4298 8.22098 83.9795 9.76504 83.9795 11.958C83.9795 14.151 82.4298 15.6951 80.1862 15.6951Z" fill="black"/>
<path d="M101.558 11.8239C101.558 8.46719 98.9678 5.91614 95.3133 5.91614C91.6589 5.91614 89.0684 8.44482 89.0684 11.9581C89.0684 15.4714 91.6589 18.0001 95.3133 18.0001C97.8113 18.0001 100.171 16.8588 101.073 14.6435L98.5746 14.2407C97.9964 15.0686 96.8862 15.6504 95.4753 15.6504C93.4398 15.6504 92.0983 14.4421 91.8439 12.6518H101.512C101.535 12.4057 101.558 12.1372 101.558 11.8239ZM95.3133 8.15391C96.9787 8.15391 98.2277 9.18328 98.6671 10.6379H92.0058C92.4453 9.13852 93.6943 8.15391 95.3133 8.15391Z" fill="black"/>
<mask id="mask0_316_124" style="mask-type:luminance" maskUnits="userSpaceOnUse" x="0" y="0" width="24" height="24">
<path d="M24 0H0V24H24V0Z" fill="white"/>
</mask>
<g mask="url(#mask0_316_124)">
<path d="M16.3594 0H7.64062C3.42083 0 0 3.42083 0 7.64062V16.3594C0 20.5792 3.42083 24 7.64062 24H16.3594C20.5792 24 24 20.5792 24 16.3594V7.64062C24 3.42083 20.5792 0 16.3594 0Z" fill="#201F25"/>
<path d="M17.5957 12.4872C17.5957 12.6278 17.5957 12.7117 17.5957 12.7942C17.5957 13.3492 17.5811 13.9037 17.5957 14.4583C17.6069 14.9552 17.4349 15.3372 16.9966 15.5922C16.1669 16.0755 15.3429 16.5677 14.5122 17.0477C13.8836 17.4105 13.2438 17.7541 12.6157 18.1173C12.198 18.3592 11.801 18.3644 11.3777 18.1202C9.93676 17.2902 8.49221 16.4669 7.04406 15.6503C6.60952 15.4066 6.4164 15.0742 6.42202 14.5675C6.44077 12.9198 6.42906 11.2712 6.42952 9.62312C6.42952 9.5214 6.43609 9.42015 6.43515 9.31843C6.43515 8.96593 6.58468 8.71328 6.89499 8.53656C7.76359 8.04203 8.62515 7.53625 9.49051 7.03609C10.1594 6.64937 10.8335 6.27062 11.4982 5.8764C11.8422 5.67203 12.1722 5.665 12.5158 5.86328C14.0158 6.72906 15.5219 7.58781 17.0182 8.46109C17.5155 8.75125 17.7429 9.4239 17.5108 9.95453C17.4311 10.1369 17.2408 10.2977 17.0632 10.405C16.0061 11.0402 14.9402 11.6608 13.8724 12.28C12.8439 12.8734 11.8127 13.4566 10.7847 14.0491C10.5972 14.1583 10.4219 14.2919 10.2372 14.4086C10.1055 14.492 10.0966 14.5694 10.2344 14.6491C10.7732 14.9647 11.3119 15.2794 11.8507 15.5931C11.9988 15.6798 12.1319 15.6362 12.2674 15.5566C13.9624 14.5741 15.6581 13.5933 17.3547 12.6142C17.4143 12.58 17.4761 12.55 17.5957 12.4872ZM8.82484 11.2525H8.82156C8.82156 11.5487 8.82156 11.845 8.82156 12.1431C8.82156 12.3227 8.87968 12.3695 9.04707 12.272C10.5836 11.3802 12.1213 10.4896 13.66 9.60015C13.8672 9.48015 13.8733 9.42484 13.6886 9.3189C13.1875 9.03437 12.6883 8.74515 12.1783 8.47515C12.1246 8.45153 12.0666 8.43962 12.008 8.44028C11.9493 8.44093 11.8915 8.45411 11.8385 8.4789C10.8888 9.0189 9.94895 9.5739 9.0002 10.1153C8.94067 10.1428 8.89131 10.1884 8.85906 10.2455C8.82685 10.3026 8.8134 10.3684 8.82062 10.4336C8.83046 10.7064 8.82484 10.9792 8.82484 11.2525Z" fill="white"/>
</g>
</svg>
